<?xml version="1.0" encoding="utf-8"?>
<!-- Generator: Adobe Illustrator 19.1.0, SVG Export Plug-In . SVG Version: 6.00 Build 0)  -->
<svg version="1.1" id="Layer_1" xmlns="http://www.w3.org/2000/svg" xmlns:xlink="http://www.w3.org/1999/xlink" x="0px" y="0px"
	 viewBox="0 0 877.6324 545.0405" style="enable-background:new 0 0 877.6324 545.0405;" xml:space="preserve">
<style type="text/css">
	.st0{fill:#BE1E2D;stroke:#231F20;stroke-width:6;stroke-miterlimit:10;}
	.st1{fill:#231F20;stroke:#231F20;stroke-width:6;stroke-miterlimit:10;}
	.st2{fill:#E6432E;}
</style>
<path class="st0" d="M3.046,458.9297c-1.9625-7.3204,59.4289-28.2191,66-30c6.5033-1.7625,12.9986-2.9997,12.9987-2.9998
	c0.0009-0.0002,0.0013-0.0002,0.0013-0.0002c10.8388-2.0678,20.1321-2.7764,27-3c17.0197-12.5422,31.6965-20.2588,42-25
	c7.761-3.5713,12.0982-5.0208,19-9c15.0109-8.6546,24.9677-19.3676,31-27c42.6905-13.4193,62.1548-31.5256,72-46
	c2.9493-4.3361,6.1272-9.9513,13-17c3.7537-3.8498,22.3056-22.1738,49-27c3.9182-0.7084,5.2594-0.6284,21-3
	c8.0709-1.2161,14.6696-2.2845,19-3c18.1064-9.058,32.7394-10.4893,43-10c13.664,0.6516,17.5593,4.6129,40,9
	c21.3091,4.1658,31.9637,6.2487,43,4c22.4911-4.5828,40.6405-22.1724,49-40c4.9247-10.5027,1.8813-11.3413,8-30
	c5.3905-16.4384,11.5755-27.4451,21-44c13.389-23.519,25.3673-39.3592,35-52c14.5656-19.114,23.0465-27.6548,34-35
	c10.4765-7.0254,17.8423-9.3544,20-10c6.9417-2.0771,24.5239-7.3379,41,2c11.4067,6.4648,16.7885,16.8128,19,22
	c-2.5894,4.6503-6.912,10.5893-14,14c-10.3497,4.9802-15.762-0.6433-28,3c-16.1511,4.8082-24.3839,19.8602-26,23
	c-4.3378,8.4279-4.7863,16.0984-5,19c-2.2217,30.1649-18.462,79.7881-38,113c-14.516,24.6752-30.8801,40.3388-39,48
	c-23.66,22.3232-47.4577,35.4547-64,43c1.1642,6.6798,2.4365,16.7671,2,29c-0.4781,13.4009-2.5911,17.7269-6,38
	c-7.2335,43.019-2.1213,49.721,0,52c5.563,5.9767,11.3415,3.8653,18,12c4.3444,5.3075,9.1857,15.1262,6,22
	c-5.4787,11.8213-35.1769,15.9661-49,1c-6.3911-6.9196-0.6196-15.1224-7-28c-4.4673-9.0162-11.6281-14.6461-17-18
	c-2.1628-20.2422-1.3682-33.8377,0-43c0.4825-3.2313,1.6437-9.9778-2-13c-3.3285-2.7608-9.0654-1.0859-12,0
	c-0.4637,8.0952-0.8051,16.4325-1,25c-0.2592,11.3958-0.2409,22.4056,0,33c1.7296,1.1364,12.7524,8.6351,14,22
	c0.5237,5.6095-0.8652,10.213-2,13c-14.3333-1.3334-28.6667-2.6667-43-4c-1.5804-2.0176-5.5982-7.6996-6-16
	c-0.3207-6.6254,1.8201-11.6627,3-14c-3-9.3334-6-18.6667-9-28c-2.248,3.5135-4.7809,8.565-6,15
	c-0.7232,3.8176-2.1918,12.1725,1.6667,21.3333c1.7276,4.1017,3.9871,7.0922,5.6667,9c0.4691,0.9164,9.1266,18.2368,2.3333,25
	c-0.5272,0.5248-1.8521,1.6876-7,2.6667c-6.9438,1.3206-17.964,3.4166-28-3.3333c-7.4234-4.9927-10.4994-12.2634-11.6667-15.6667
	c-0.2222-19.7778-0.4444-39.5556-0.6667-59.3334c-23.8088,5.3047-33.4206,1.3476-37.6667-3.6666
	c-3.4779-4.1071-4.6143-10.4095-8.3333-10.6667c-2.9998-0.2074-5.7701,3.6503-8.6667,9
	c-8.0107,14.7947-17.3691,32.0784-9.3333,48.6667c1.5112,3.1196,4.5096,8.0146,10.6667,12.6666
	c-2.5435,3.7083-7.6984,9.953-16,12.3334c-3.4554,0.9907-6.1759,0.945-15.3333,0c-17.0927-1.7639-25.6862-2.693-28-5
	c-4.4364-4.4234-3.3513-13.3425-1-31c2.5189-18.9161,4.5391-33.5555,5.6667-41.6667c-12.5358-1.0992-31.7441-1.3214-53.6667,5
	c-12.0436,3.4728-17.1231,6.6761-37.3333,15c-24.9925,10.2936-37.6453,15.5048-54,19.6667
	c-19.8682,5.056-38.4677,5.8151-75.6667,7.3333C5.7327,461.2826,3.3898,460.2121,3.046,458.9297z"/>
<ellipse class="st1" cx="752.3637" cy="140.5286" rx="51.7474" ry="58.4971"/>
<ellipse class="st2" cx="752.3637" cy="140.5287" rx="16.4992" ry="17.2491"/>
</svg>
