<?xml version="1.0" encoding="utf-8"?>
<!-- Generator: Adobe Illustrator 20.1.0, SVG Export Plug-In . SVG Version: 6.00 Build 0)  -->
<svg version="1.1" id="Layer_1" xmlns="http://www.w3.org/2000/svg" xmlns:xlink="http://www.w3.org/1999/xlink" x="0px" y="0px"
	 viewBox="0 0 2185.4 369.9" style="enable-background:new 0 0 2185.4 369.9;" xml:space="preserve">
<style type="text/css">
	.st0{fill:#F8A533;}
	.st1{fill:#FFFFFF;}
	.st2{fill:#FAA634;}
</style>
<g>
	<g>
		<g>
			<path class="st0" d="M2144.3,80.7c-7.5,0-14.4-1.8-20.4-5.5c-6.5-4-11.2-8.9-14.5-14.9c-3.3-5.8-4.9-12.3-4.9-19.4
				c0-7.1,1.7-13.7,5.2-20.1c3.4-6.2,8.3-11,14.5-14.5c6.6-3.7,13.2-5.5,20.1-5.5c7.1,0,13.7,1.7,20.1,5.2c6.2,3.4,11,8.3,14.5,14.5
				c3.6,6.6,5.5,13.3,5.5,20.1c0,6.9-1.7,13.5-5.2,19.7c-3.3,6-8.2,11-14.5,14.9C2158.8,78.9,2151.9,80.7,2144.3,80.7z M2144.8,7.1
				c-5.7,0-11.3,1.5-17.1,4.7c-4.9,2.7-9,6.8-12.4,12.5c-3.2,5-4.9,10.8-4.9,16.7c0,5.7,1.6,11.4,4.7,17.1
				c2.9,5.3,6.9,9.3,12.4,12.4c5.6,3.2,11,4.7,17.1,4.7c5.9,0,11.2-1.4,17.1-4.7c5.4-3.1,9.5-7.2,12.4-12.4c3.2-5.6,4.7-11,4.7-17.1
				c0-6.3-1.5-11.9-4.4-16.7c-3.4-5.6-7.4-9.6-12.4-12.5C2156.5,8.6,2150.8,7.1,2144.8,7.1z M2155.3,62l-9.8-16.9h-7.1V62h-6V19.5
				h10.4c4.8,0,8.3,1,10.8,3.2c3,1.9,4.5,5,4.5,9.4c0,2.6-0.6,4.8-1.9,6.7c-1.1,1.7-2.8,3.2-4.9,4.5l11.3,18.8H2155.3z M2143.3,40.3
				c2.9,0,5-0.7,6.4-2c1.5-1.5,2.3-3.5,2.3-6c0-5.1-2.7-7.4-8.6-7.4h-4.6v15.4H2143.3z"/>
			<path class="st0" d="M2144.3,1.4c7.2,0,13.6,1.7,19.8,5.1s10.9,8.2,14.3,14.3s5.4,12.7,5.4,19.8c0,6.9-1.7,13.3-5.1,19.4
				c-3.4,6.1-8.2,10.9-14.3,14.7c-6.1,3.8-12.9,5.4-20.1,5.4c-7.2,0-14-1.7-20.1-5.4c-6.1-3.8-10.9-8.5-14.3-14.7
				c-3.1-5.5-4.8-12-4.8-19.1s1.7-13.6,5.1-19.8c3.4-6.2,8.2-10.9,14.3-14.3C2130.5,3.4,2137,1.4,2144.3,1.4 M2144.6,75.7
				c6.5,0,11.9-1.7,17.4-4.7c5.4-3.1,9.6-7.2,12.7-12.7c3.1-5.4,4.7-10.9,4.7-17.4c0-6.1-1.4-11.9-4.4-17
				c-3.1-5.1-7.2-9.6-12.7-12.7c-5.4-3.1-11.2-4.7-17.4-4.7s-11.9,1.7-17.4,4.7c-5.5,3-9.6,7.5-12.7,12.7c-3.3,5.1-5,10.9-5,17
				s1.7,11.9,4.7,17.4c3,5.5,7.2,9.6,12.7,12.7C2132.6,74,2138.1,75.7,2144.6,75.7 M2142.7,20c4.6,0,8,1,10.4,3c3,1.9,4.3,5,4.3,8.9
				c0,2.4-0.6,4.6-1.8,6.4c-1.2,1.8-3,3.4-5.2,4.6l11,18.4h-5.8l-9.8-16.9h-8v16.9h-4.9V20H2142.7 M2138,40.9h5.2
				c2.8,0,5.2-0.6,6.8-2.2c1.6-1.6,2.4-3.6,2.4-6.4c0-5.5-3-8-9.2-8h-5.2V40.9 M2144.3,0.2c-7,0-13.6,1.8-20.4,5.6
				c-6.4,3.5-11.3,8.5-14.8,14.8c-3.5,6.5-5.3,13.1-5.3,20.4c0,7.2,1.7,13.8,5,19.7c3.3,6.1,8.1,11,14.7,15.1
				c6.1,3.7,13.1,5.6,20.7,5.6c7.8,0,14.7-1.9,20.7-5.6c6.4-3.9,11.3-9,14.7-15.1c3.5-6.3,5.3-13,5.3-20c0-6.9-1.9-13.7-5.6-20.4
				c-3.5-6.4-8.5-11.3-14.8-14.8C2158.2,1.9,2151.5,0.2,2144.3,0.2L2144.3,0.2z M2144.6,74.5c-6,0-11.4-1.5-16.8-4.6
				c-5.4-3-9.4-7-12.2-12.2c-3-5.6-4.6-11.3-4.6-16.8c0-5.9,1.6-11.4,4.8-16.4c3.4-5.6,7.4-9.6,12.2-12.3c5.7-3.1,11.2-4.6,16.8-4.6
				c5.8,0,11.5,1.5,16.8,4.6c4.9,2.8,8.9,6.8,12.2,12.3c2.8,4.7,4.3,10.2,4.3,16.4c0,6-1.5,11.4-4.6,16.8
				c-2.9,5.2-6.9,9.2-12.2,12.2C2155.6,73.1,2150.4,74.5,2144.6,74.5L2144.6,74.5z M2142.7,18.9h-9.8h-1.1V20v41.4v1.1h1.1h4.9h1.1
				v-1.1V45.8h6.2l9.5,16.3l0.3,0.6h0.7h5.8h2l-1-1.7L2152,43.4c1.9-1.2,3.5-2.7,4.6-4.4c1.3-2,2-4.4,2-7.1c0-4.6-1.5-7.8-4.7-9.9
				C2151.2,19.9,2147.6,18.9,2142.7,18.9L2142.7,18.9z M2139.2,25.4h4.1c5.6,0,8.1,2.1,8.1,6.8c0,2.4-0.7,4.2-2.1,5.6
				c-1.2,1.2-3.2,1.8-6,1.8h-4.1V25.4L2139.2,25.4z"/>
		</g>
	</g>
	<g>
		<g>
			<path class="st1" d="M594.8,181l-47.7-17.1l-1.9-0.6c-11.7-4-23.2-8.7-23.2-19.2c0-4.8,0-17.7,40.4-17.7
				c10.5,0,35.2,2.3,37.1,23.7l0.3,3.9h57.7l-0.5-4.7c-4.9-45.2-35-66.3-94.6-66.3c-83.6,0-96.1,39.3-96.1,62.7
				c0,34.8,29.8,50.2,62,61.7l48,16.7c18.6,6.6,26.6,13,26.6,21.3c0,9.5-3.3,17.3-43.7,17.3c-20.5,0-36.3-9.6-40.2-24.4l-0.8-3.2
				H461l0.5,4.7c4.9,45.2,35.9,66.3,97.6,66.3c82.2,0,99.5-34.9,99.5-64.1C658.6,206.3,629.7,193.2,594.8,181z"/>
			<path class="st1" d="M840,82.9c-28.2,0-46.9,7.6-56.4,12.9v-9.9H730v284l55.4-14.9v-51.8H840c59.7,0,91.3-30.5,91.3-88.3v-43.5
				C931.3,113.4,899.7,82.9,840,82.9z M785.4,171.2c0-30.2,14.8-44.9,45.2-44.9c31.7,0,45.2,13.4,45.2,44.9v43.5
				c0,31.4-13.5,44.9-45.2,44.9h-45.2V171.2z"/>
			<polygon class="st1" points="1010.2,303.1 1065.5,303.1 1065.5,24.7 1010.2,39.6 			"/>
			<path class="st2" d="M1292.1,217.7c0,31.4-13.5,44.9-45.2,44.9s-45.2-13.4-45.2-44.9V85.9h-55.4v131.8c0,60.3,32,88.3,100.6,88.3
				s100.6-28.1,100.6-88.3V85.9h-55.4V217.7z"/>
			<path class="st2" d="M1533,83.3c-20.2,0-37.6,6-49,12.4v-9.8h-53.5v217.2h55.4V171.2c0-36.2,22.4-43.7,41.1-43.7
				c13.4,0,25.9,3.4,32.2,5.4l4.2,1.3l11.9-43l-3.7-1.4C1559.3,85.3,1547.4,83.3,1533,83.3z"/>
			<path class="st2" d="M1623.9,174.2v36.1c0,57.8,31.6,88.3,91.3,88.3c23.7,0,42.7-6.1,54.3-12.6c-1.7,27.1-15.5,38.7-45,38.7
				h-64.3l-11.6,43.5h85.1c59.7,0,91.3-30.5,91.3-88.3v-194h-109.9C1655.5,85.9,1623.9,116.4,1623.9,174.2z M1724.5,255.1
				c-31.7,0-45.2-13.4-45.2-44.9v-36.1c0-31.4,13.5-44.9,45.2-44.9h45.2v80.9C1769.8,240.5,1755,255.1,1724.5,255.1z"/>
			<path class="st2" d="M2103,213.1v-41.8c0-60.3-31.6-88.3-99.5-88.3s-99.5,28.1-99.5,88.3v46.4c0,60.3,32,88.3,100.6,88.3
				c56.4,0,87.1-19.4,93.8-59.3l0.8-5h-55.4l-0.9,3c-2.7,8.5-9.6,19.7-38.4,19.7c-31.7,0-45.2-13.4-45.2-44.9V213H2103V213.1z
				 M1959.4,169.4c0-31.4,13.2-44.9,44.1-44.9s44.1,13.4,44.1,44.9v1.7h-88.2V169.4z"/>
		</g>
		<g>
			<path class="st2" d="M270.6,300.7c0,0-43.3,3.8-98,3.8s-98-3.8-98-3.8c-4-0.4-7-3.2-7.4-7.4c0,0-3.8-43.3-3.8-98s3.8-98,3.8-98
				c0.4-4.3,3.4-7.2,7.4-7.4c0,0,43.5-3.8,98-3.8s98,3.8,98,3.8c4.1,0.3,7,3.4,7.4,7.4c0,0,3.8,43.4,3.8,98s-3.8,98-3.8,98
				C277.5,297.4,274.7,300.3,270.6,300.7z"/>
			<g>
				<path class="st1" d="M69.5,57.4c0,0,45.8-4,103-4c57.3,0,103,4,103,4c0.3,0,0.6,0.1,1,0.1c-28.9-21.8-64.9-34.8-103.9-34.8
					s-75,13-103.9,34.8C68.9,57.5,69.2,57.4,69.5,57.4z"/>
			</g>
			<g>
				<path class="st1" d="M310.5,92.2c0,0,4,45.8,4,103c0,57.3-4,103-4,103c0,0.3-0.1,0.6-0.1,1c21.9-28.9,34.8-64.9,34.8-104
					c0-39-13-75-34.8-103.9C310.4,91.6,310.5,91.9,310.5,92.2z"/>
			</g>
			<g>
				<path class="st1" d="M275.6,333.2c0,0-45.8,4-103,4c-57.3,0-103-4-103-4c-0.3,0-0.6-0.1-1-0.1c28.9,21.9,64.9,34.8,104,34.8
					c39,0,75-13,103.9-34.8C276.2,333.1,276,333.2,275.6,333.2z"/>
			</g>
			<g>
				<path class="st1" d="M34.7,298.3c0,0-4-45.8-4-103c0-57.3,4-103,4-103c0-0.3,0.1-0.6,0.1-1C13,120.3,0,156.3,0,195.3
					s13,75,34.8,103.9C34.8,298.9,34.7,298.7,34.7,298.3z"/>
			</g>
		</g>
	</g>
</g>
</svg>
