<?xml version="1.0" encoding="UTF-8" standalone="no"?>
<svg
   xmlns:dc="http://purl.org/dc/elements/1.1/"
   xmlns:cc="http://creativecommons.org/ns#"
   xmlns:rdf="http://www.w3.org/1999/02/22-rdf-syntax-ns#"
   xmlns:svg="http://www.w3.org/2000/svg"
   xmlns="http://www.w3.org/2000/svg"
   version="1.1"
   id="svg2"
   viewBox="0 0 3000 2002"
   height="2002"
   width="3000">
  <defs
     id="defs4" />
  <metadata
     id="metadata7">
    <rdf:RDF>
      <cc:Work
         rdf:about="">
        <dc:format>image/svg+xml</dc:format>
        <dc:type
           rdf:resource="http://purl.org/dc/dcmitype/StillImage" />
        <dc:title></dc:title>
      </cc:Work>
    </rdf:RDF>
  </metadata>
  <g
     transform="translate(666.54095,415.31807)"
     id="layer1">
    <g
       transform="translate(202.03046,-266.68027)"
       id="g5786">
      <path
         style="fill:#b5a69b;fill-opacity:1"
         d="m -868.57113,1774.9587 c 0,-61.2572 0.27211,-78.5958 1.25,-79.6493 1,-1.0774 1,-1.2056 0,-0.641 -0.89971,0.508 -1.25,-0.3082 -1.25,-2.9123 0,-2.6283 0.34195,-3.4126 1.25,-2.8671 0.98759,0.5934 0.99515,0.4359 0.036,-0.7501 -1.32496,-1.6382 -1.21519,-9.5703 0.1633,-11.8007 0.58486,-0.9463 0.49061,-1.163 -0.29476,-0.6776 -0.69098,0.4271 -1.15451,0.064 -1.15451,-0.9045 0,-0.8899 0.45,-1.3399 1,-1 0.55,0.3399 1,0.179 1,-0.3576 0,-0.5367 -0.5625,-1.1651 -1.25,-1.3964 -0.99598,-0.3353 -0.99774,-0.7265 -0.009,-1.9254 0.68273,-0.8275 0.98497,-1.761 0.67164,-2.0743 -0.31333,-0.3133 -0.69922,-1.7497 -0.85753,-3.1919 -0.26417,-2.4065 -0.14843,-2.496 1.4071,-1.0883 0.93222,0.8436 2.44702,1.5339 3.36621,1.5339 0.97009,0 1.67126,0.7902 1.67126,1.8834 0,2.5 2.75092,3.0894 6.75,1.4463 2.13601,-0.8777 3.25,-2.02 3.25,-3.3326 0,-2.3772 1.27219,-2.579 3.01557,-0.4783 1.03014,1.2412 0.94325,1.8692 -0.47552,3.4369 -0.95478,1.0551 -1.44033,2.3966 -1.07899,2.9813 1.02617,1.6604 2.34348,1.2542 3.03894,-0.937 0.81712,-2.5745 2.13876,-2.5435 3.54452,0.083 0.87987,1.644 0.77515,2.4586 -0.49677,3.864 -1.49667,1.6538 -1.431,1.8993 0.92029,3.4399 l 2.53196,1.659 0,-3.6455 c 0,-3.1348 0.21114,-3.4703 1.50725,-2.3946 1.26995,1.054 1.67893,0.7584 2.59781,-1.8775 0.59983,-1.7207 1.34537,-3.1285 1.65675,-3.1285 1.87513,0 8.23819,3.5972 8.23819,4.6573 0,1.444 3.43072,3.5786 4.32091,2.6885 0.32112,-0.3212 1.31176,0.144 2.20141,1.0337 2.35487,2.3548 6.28548,3.0613 8.98728,1.6154 2.87956,-1.5411 5.49948,-0.6762 6.21264,2.0509 l 0.53236,2.0357 1.42941,-2.0407 c 0.78617,-1.1225 2.04242,-2.0408 2.79166,-2.0408 2.48291,0 7.51159,3.4722 7.51802,5.191 0.008,2.2174 1.88864,3.3267 3.28021,1.9351 0.7995,-0.7995 0.4619,-1.7784 -1.23693,-3.5868 -1.98622,-2.1142 -2.10091,-2.5775 -0.7649,-3.0902 2.024,-0.7767 5.43078,1.0487 6.15871,3.2998 1.47177,4.5516 11.08138,5.043 12.19061,0.6235 0.66574,-2.6525 1.14543,-2.7918 4.81352,-1.3972 3.08679,1.1736 3.22119,2.3687 0.5651,5.0248 -2.20592,2.2059 -2.73855,4.5778 -0.75,3.3399 0.6875,-0.428 2.2625,-0.6474 3.5,-0.4875 2.38332,0.308 2.77287,-0.4786 1.34971,-2.7253 -1.11104,-1.754 1.65347,-5.1271 4.20199,-5.1271 1.56205,0 1.74752,0.4994 1.16699,3.1425 l -0.69021,3.1426 4.77021,-0.5377 c 4.26834,-0.4811 5.29018,-0.1722 9.71251,2.9362 l 4.9423,3.4739 2.23812,-2.1027 c 2.21239,-2.0784 8.49097,-4.4555 9.39099,-3.5555 0.25579,0.2558 0.51059,1.7106 0.56623,3.2329 0.0792,2.1679 0.53466,2.7075 2.10116,2.4897 4.82516,-0.6711 6.5,-1.3498 6.5,-2.634 0,-1.8046 1.98872,-2.5039 5.31338,-1.8683 3.52113,0.6731 3.40488,1.8344 -0.31338,3.1306 -2.01892,0.7038 -3,1.7168 -3,3.0978 0,2.1413 2.4057,2.8226 3.532,1.0002 0.35752,-0.5785 2.07158,-0.916 3.80902,-0.75 2.6472,0.2529 3.21201,-0.072 3.48632,-2.0076 0.24461,-1.7258 0.87644,-2.2312 2.5,-2 1.74281,0.2482 2.10699,0.8691 1.84074,3.1384 -0.30367,2.5882 -0.1547,2.7342 1.75,1.7148 1.14506,-0.6128 2.08192,-1.4385 2.08192,-1.8349 0,-0.3964 1.29063,-1.292 2.86806,-1.9902 3.22001,-1.4253 8.77391,-0.066 7.58576,1.856 -0.98594,1.5953 3.07364,4.9253 6.00437,4.9253 1.39799,0 2.54181,0.45 2.54181,1 0,0.55 0.49814,1 1.10699,1 0.60884,0 0.84797,-0.675 0.53138,-1.5 -0.31658,-0.825 -0.0272,-1.5477 0.64301,-1.606 3.52785,-0.3067 7.33433,0.393 8.21862,1.5107 0.55,0.6952 2.27493,1.5815 3.83318,1.9696 2.3018,0.5732 2.92836,0.3416 3.34068,-1.2351 0.527,-2.0153 5.56363,-3.6972 6.15947,-2.0569 0.18334,0.5048 1.19584,0.9177 2.25,0.9177 1.44721,0 1.91667,-0.7086 1.91667,-2.893 0,-2.838 2.18074,-4.7314 4.09024,-3.5512 1.22994,0.7601 1.15962,3.4442 -0.0902,3.4442 -0.55,0 -1,0.6954 -1,1.5453 0,1.2298 0.76559,1.4181 3.75,0.9221 6.17087,-1.0256 6.95811,-1.4054 5.22197,-2.5198 -1.02125,-0.6555 -0.53622,-0.7657 1.58404,-0.36 2.11939,0.4056 3.45669,0.102 4.36331,-0.9904 0.71901,-0.8663 1.72816,-1.3151 2.24255,-0.9972 0.55578,0.3435 0.47488,1.1328 -0.1994,1.9452 -1.44709,1.7437 -0.40868,3.4548 2.09655,3.4548 1.06754,0 1.94098,0.4079 1.94098,0.9064 0,0.4985 0.90469,0.6698 2.01041,0.3806 1.55615,-0.4069 2.24823,0.1565 3.0629,2.4935 1.09182,3.1319 4.63748,4.9087 6.35944,3.1867 0.53195,-0.5317 1.77721,-0.967 2.76721,-0.967 0.99,0 1.8,-0.3937 1.8,-0.875 0,-0.4812 1.46059,-1.1671 3.24576,-1.5242 2.32992,-0.4659 3.56022,-0.219 4.36024,0.875 1.33305,1.8231 3.54921,1.969 5.17733,0.3409 1.5609,-1.5609 2.26962,-0.7352 1.59225,1.8551 -0.2998,1.1464 -1.6901,2.6061 -3.08956,3.2437 -3.2946,1.5012 -2.30337,2.4669 1.64247,1.6002 2.1517,-0.4726 3.07151,-1.2603 3.07151,-2.6303 0,-1.6657 0.30595,-1.792 2.06255,-0.8519 1.13441,0.6071 3.38441,1.1414 5,1.1873 2.37001,0.067 2.93745,0.5257 2.93745,2.3724 0,1.2588 0.50031,2.598 1.1118,2.9759 1.38788,0.8578 2.85264,-1.3444 2.87289,-4.3191 0.008,-1.2375 0.27245,-2.25 0.58674,-2.25 1.36557,0 3.42857,3.0392 3.42857,5.051 0,1.8367 0.24419,1.9912 1.5,0.949 1.98851,-1.6503 1.90187,-3.6318 -0.19397,-4.4361 -1.41134,-0.5415 -1.22542,-0.8931 1.11431,-2.1069 4.5554,-2.3634 7.29894,-1.5763 4.44688,1.2758 -1.75043,1.7504 -0.21614,4.2672 2.6014,4.2672 1.39226,0 2.53138,0.45 2.53138,1 0,0.55 0.52844,1 1.17431,1 0.64588,0 0.12187,-1.1203 -1.16447,-2.4895 -2.27063,-2.417 -2.28576,-2.5481 -0.51932,-4.5 1.81441,-2.0049 4.50948,-2.7284 4.50948,-1.2105 0,0.44 -0.49831,1.2983 -1.10736,1.9074 -0.80981,0.8098 -0.5018,1.4314 1.14631,2.3134 2.01076,1.0762 2.19939,0.9986 1.75011,-0.7194 -0.45316,-1.7329 0.0379,-1.9168 4.90624,-1.8375 3.60095,0.059 5.72147,0.581 6.34193,1.5621 1.51411,2.3943 1.10179,3.974 -1.03723,3.974 -1.1,0 -2,0.4803 -2,1.0674 0,1.3797 3.67665,0.2499 7.15437,-2.1986 3.38376,-2.3823 4.18113,-2.3642 2.88081,0.065 -1.47811,2.7618 -1.29615,3.2833 0.90227,2.5856 1.0656,-0.3383 2.8656,-0.035 4,0.6731 1.56466,0.9772 2.50084,1.0144 3.87821,0.1542 1.44051,-0.8996 2.31864,-0.7473 4.25,0.7372 3.66401,2.8163 5.24113,2.4592 4.72325,-1.0693 l -0.43809,-2.9849 3.45198,2.633 c 3.0833,2.3517 3.55049,2.4569 4.37428,0.9849 1.09861,-1.9631 5.28296,-2.2893 4.5403,-0.354 -0.37192,0.9692 1.2332,1.3514 6.39301,1.5221 13.01405,0.4305 17.36434,0.083 20.57387,-1.642 3.13154,-1.6829 4.31574,-1.4563 4.31574,0.8263 0,2.2471 1.03491,2.5651 2.75387,0.8461 0.87183,-0.8718 2.03164,-0.4843 4.74493,1.5852 2.87981,2.1965 3.87673,2.5019 5.03339,1.542 1.77846,-1.476 4.46781,-0.5759 4.46781,1.4953 0,1.7238 1.55834,2.055 2.5,0.5314 0.97085,-1.5709 4.22116,-1.169 4.90233,0.6061 0.43875,1.1433 1.33388,1.4259 3.10699,0.9809 1.56925,-0.3938 2.49068,-0.201 2.49068,0.5212 0,1.7878 9.67408,0.4967 11.99137,-1.6004 1.53411,-1.3883 2.28209,-1.5257 3.37376,-0.6197 1.0187,0.8454 6.15641,0.9809 18.76876,0.4948 22.79312,-0.8785 47.87063,-0.7798 50.30614,0.198 1.25415,0.5036 2.08669,0.3389 2.35487,-0.4656 0.22817,-0.6845 1.54824,-1.6755 2.93349,-2.2021 1.99567,-0.7588 2.78756,-0.5896 3.81375,0.8146 1.15521,1.5808 3.48063,1.7977 21.52896,2.008 11.12862,0.1297 20.44941,0.4514 20.71286,0.7148 0.26345,0.2635 1.28859,0.046 2.27808,-0.4838 1.29532,-0.6932 2.23191,-0.53 3.3449,0.583 1.22405,1.224 1.98582,1.3104 3.65942,0.4147 2.3513,-1.2584 9.65275,-1.5058 13.00825,-0.4408 1.27608,0.405 2.46776,0.2168 2.8832,-0.4554 0.51559,-0.8343 1.46636,-0.8575 3.4968,-0.086 2.01284,0.7653 3.16859,0.745 4.15429,-0.073 0.75771,-0.6288 2.15033,-0.8024 3.12837,-0.39 0.9695,0.4089 3.09876,0.9162 4.73168,1.1274 1.63292,0.2113 3.373,1.1061 3.86683,1.9885 0.67106,1.1991 1.08914,1.295 1.65498,0.3794 0.42546,-0.6884 3.76916,-1.4323 7.63317,-1.6984 3.78184,-0.2604 7.55107,-0.7168 8.37607,-1.0143 4.05048,-1.4606 6.93824,-0.9741 9.31726,1.5696 1.35193,1.4455 2.76408,3.6412 3.13812,4.8793 0.68797,2.2772 4.24769,4.8792 5.27277,3.8541 0.30627,-0.3063 -0.0338,-1.2685 -0.75564,-2.1383 -1.11491,-1.3434 -0.90933,-1.9846 1.36567,-4.2596 2.25785,-2.2579 2.97583,-2.4923 4.57484,-1.4937 1.46323,0.9138 2.62393,0.9105 5.07901,-0.014 2.86834,-1.0808 3.36221,-0.9771 5.00544,1.0509 1.19272,1.472 2.9132,2.25 4.97568,2.25 2.69536,0 3.10719,-0.3263 2.83971,-2.25 -0.25114,-1.8061 0.22966,-2.3124 2.43714,-2.5664 2.15122,-0.2475 2.75,0.1 2.75,1.595 0,1.0513 -0.9,2.7259 -2,3.7214 -1.1,0.9955 -2,2.6617 -2,3.7027 0,1.0411 -1.19071,2.9963 -2.64602,4.345 -2.97191,2.7543 -5.89608,3.3074 -4.98902,0.9436 0.31841,-0.8298 0.1341,-2.6787 -0.40959,-4.1087 -0.84591,-2.2249 -1.21554,-2.4116 -2.56224,-1.2939 -1.43088,1.1875 -1.42938,1.4116 0.0166,2.4689 1.90057,1.3898 2.08304,2.6217 0.3403,2.2976 -0.6875,-0.1279 -2.79211,0.1306 -4.67691,0.5744 -2.74119,0.6455 -3.68539,0.4535 -4.71874,-0.9597 -1.0649,-1.4563 -1.56084,-1.5434 -2.82309,-0.4958 -0.84219,0.6989 -1.53126,1.8907 -1.53126,2.6483 0,0.7577 -0.42222,1.3776 -0.93826,1.3776 -0.51605,0 -0.85355,-1.2199 -0.75,-2.7108 0.23353,-3.3627 -2.81081,-4.4428 -3.79369,-1.3461 -0.6595,2.0779 -3.77421,2.6937 -10.81269,2.1378 -2.67556,-0.2114 -2.78432,-0.046 -2.55264,3.8804 0.16281,2.7593 0.64351,3.9471 1.46916,3.6303 0.67495,-0.259 1.94652,0.6269 2.8257,1.9687 1.73935,2.6546 4.1426,3.3694 3.15941,0.9397 -0.33385,-0.825 -0.88891,-2.1979 -1.23347,-3.0508 -0.51288,-1.2696 -0.10489,-1.4254 2.25,-0.8593 3.71995,0.8942 3.72172,0.8965 2.48968,3.1986 -1.41044,2.6354 1.42148,5.2115 5.72911,5.2115 1.75166,0 4.04538,0.5374 5.09717,1.1943 1.43859,0.8984 2.52507,0.9151 4.38577,0.067 1.3604,-0.6199 3.48981,-0.8612 4.73203,-0.5364 1.9831,0.5186 2.18466,0.297 1.65247,-1.8173 l -0.60611,-2.4079 1.94783,2.5 c 1.0713,1.375 2.38383,3.0284 2.91672,3.6741 1.16869,1.4163 11.39986,2.8345 13.05747,1.81 0.64733,-0.4 3.92913,-0.9167 7.2929,-1.1482 3.36376,-0.2315 6.42276,-0.9173 6.79776,-1.5241 0.39617,-0.641 1.45729,-0.7879 2.53276,-0.3506 1.018,0.414 4.9599,0.9338 8.75976,1.1551 3.79987,0.2214 7.53144,0.9192 8.29239,1.5507 1.04203,0.8648 1.66927,0.8625 2.54115,-0.01 1.44656,-1.4465 4.0905,-1.4689 8.68661,-0.073 1.96405,0.5963 4.87444,1.4821 6.46754,1.9684 1.5931,0.4863 3.3931,0.5721 4,0.1907 0.6069,-0.3814 1.91942,-0.5591 2.9167,-0.3949 0.99728,0.1643 2.85849,-0.3862 4.13602,-1.2233 1.61121,-1.0557 4.11916,-1.4133 8.18676,-1.1672 3.31043,0.2003 6.4415,-0.1208 7.1902,-0.7373 0.98094,-0.8078 1.55587,-0.7205 2.20835,0.3352 0.70255,1.1368 1.13493,1.1746 2.12379,0.1857 1.84106,-1.841 2.46994,-1.5532 3.84164,1.7584 1.51872,3.6665 4,3.9767 4,0.5 0,-1.7407 0.54667,-2.5 1.8,-2.5 0.99,0 2.32937,-0.5294 2.97637,-1.1764 0.90183,-0.9018 1.62121,-0.7738 3.08241,0.5486 1.9249,1.742 6.512174,1.4546 7.709694,-0.483 0.77423,-1.2527 7.17683,-1.1103 7.97265,0.1773 0.36254,0.5866 -0.17341,1.6973 -1.19098,2.4682 -3.03472,2.2991 0.46003,1.7367 3.74549,-0.6028 l 2.90437,-2.0681 0,3.0681 c 0,2.0605 0.4926,3.0681 1.5,3.0681 0.83333,0 1.5,-0.8889 1.5,-2 0,-2.5007 0.845,-2.4786 3.94697,0.1031 2.07176,1.7242 2.26342,2.3304 1.25,3.9531 -1.52398,2.4403 -1.50506,2.9438 0.11058,2.9438 0.71916,0 2.11585,-1.832 3.10376,-4.0712 2.23943,-5.0758 4.02018,-5.8115 7.08869,-2.9288 2.54567,2.3915 5.5,2.1398 5.5,-0.4686 0,-1.7576 1.65074,-2.0792 2.20088,-0.4288 0.20215,0.6065 2.43852,1.1851 4.96971,1.2857 3.75828,0.1495 4.50023,-0.099 4.04623,-1.3526 -0.42852,-1.1837 -0.0731,-1.1121 1.5506,0.3123 1.15861,1.0163 2.52477,1.5895 3.03592,1.2735 0.51115,-0.3159 1.73425,0.3151 2.718,1.4021 0.98375,1.087 1.43879,1.9764 1.0112,1.9764 -0.42758,0 -0.21723,0.675 0.46746,1.5 1.694,2.0411 3.65118,1.8846 7.09494,-0.5676 2.08672,-1.4859 3.53693,-1.8433 5.15437,-1.2705 1.23788,0.4384 2.92569,0.8088 3.75069,0.823 0.91379,0.016 1.51675,1.0008 1.54286,2.5205 0.039,2.2713 0.39707,2.4743 4,2.2674 6.11186,-0.351 8.45714,-1.164 8.45714,-2.9316 0,-1.5826 2.67583,-4.246 4.32946,-4.3094 0.4562,-0.017 0.53294,1.3182 0.17054,2.9682 -0.37609,1.7123 -0.24565,3 0.30391,3 0.52956,0 1.24771,1.0125 1.59589,2.25 0.60549,2.152 0.6945,2.1698 2.0432,0.4093 0.95561,-1.2474 2.07843,-1.6286 3.48356,-1.1826 1.26024,0.4 2.07344,0.2163 2.07344,-0.4683 0,-0.6196 0.45,-0.8483 1,-0.5084 0.55,0.3399 1,1.4915 1,2.559 0,2.6535 2.30202,2.4509 3.51287,-0.309 0.78818,-1.7965 1.89406,-2.2934 5.48713,-2.4656 3.06292,-0.1467 4.86853,0.2716 5.654,1.3099 0.75121,0.993 1.38263,1.1555 1.80902,0.4655 0.36026,-0.5829 1.28347,-1.0598 2.05159,-1.0598 0.76811,0 3.05435,-1.125 5.08053,-2.5 4.65893,-3.1616 5.32542,-3.134 5.09312,0.2108 -0.22577,3.251 2.9856,4.4557 4.899636,1.8381 0.78346,-1.0714 1.45532,-1.288 1.87738,-0.6051 0.36151,0.585 1.69554,0.803 2.96451,0.4845 1.76765,-0.4437 2.86611,0.135 4.697,2.4745 2.08448,2.6634 2.77157,2.9514 5.3783,2.2543 2.44933,-0.6551 3.29893,-0.4047 4.70896,1.3879 1.72632,2.1947 2.02151,2.2192 9.69889,0.8077 2.64869,-0.487 3.71596,-0.2131 4.76611,1.223 1.21614,1.6632 1.68068,1.7141 4.58707,0.5031 1.77864,-0.7412 4.2916,-1.3319 5.58436,-1.3127 1.71004,0.025 2.05062,-0.265 1.25,-1.0656 -1.74477,-1.7448 -1.29281,-2.7005 1.27709,-2.7005 1.30765,0 2.96994,0.7138 3.69398,1.5862 0.86842,1.0464 2.24061,1.4014 4.03199,1.0431 1.73375,-0.3468 2.8967,-0.071 3.21655,0.7624 0.52358,1.3645 9.28653,1.5875 11.38615,0.2899 0.59709,-0.3691 2.36995,0 3.93969,0.8175 1.56974,0.8187 4.09598,1.4914 5.61387,1.4947 1.52279,0 3.53293,0.9092 4.48471,2.0208 1.72446,2.014 1.72537,2.0139 3.39591,-0.2007 1.47357,-1.9536 1.8733,-2.0474 3.38354,-0.794 1.52035,1.2617 1.96155,1.109 3.93125,-1.3612 l 2.2187,-2.7825 1.5675,2.3119 c 1.3631,2.0104 1.8391,2.1489 3.6495,1.0619 2.7169,-1.6312 4.5758,-1.5771 8.0804,0.2351 2.07,1.0705 2.9798,1.1617 3.2582,0.3265 0.2575,-0.7725 3.7831,-1.1758 10.5783,-1.2102 5.6057,-0.028 10.1922,-0.4003 10.1922,-0.8265 0,-0.8896 3.3837,-1.0579 4.2311,-0.2105 0.3104,0.3104 3.6193,0.6748 7.3532,0.8096 4.1645,0.1505 6.9422,0.7054 7.1856,1.4356 0.6842,2.0528 3.2235,1.299 4.4121,-1.3096 1.3732,-3.0139 3.3621,-3.2204 4.818,-0.5 1.3109,2.4495 2.8277,2.6152 2.6389,0.2883 -0.076,-0.9414 0.6486,-1.8744 1.6111,-2.0733 1.2072,-0.2495 1.75,0.2632 1.75,1.6527 0,1.1078 0.45,2.2924 1,2.6323 0.55,0.3399 1,-0.083 1,-0.941 0,-1.7579 0.8457,-1.9426 2.9105,-0.6355 0.8635,0.5466 2.0925,0.4671 3.1688,-0.2051 1.3142,-0.8207 2.1576,-0.7666 3.3395,0.2142 1.134,0.9411 1.944,1.0112 2.864,0.2477 0.7055,-0.5855 2.4555,-1.5105 3.8888,-2.0555 2.3559,-0.8956 2.5536,-0.7902 2.0597,1.0987 -0.4915,1.8795 -0.229,2.026 2.6111,1.458 1.8162,-0.3632 3.1576,-0.2173 3.1576,0.3435 0,1.5395 4.6223,1.135 6,-0.525 1.9907,-2.3986 4.9768,-1.76 9.6408,2.0619 5.0731,4.157 10.2792,5.4443 12.278,3.0359 1.844,-2.2219 5.0307,-1.9938 7.7428,0.554 l 2.2905,2.1518 0.9238,-2.4018 c 0.8203,-2.1328 1.0046,-2.2017 1.6451,-0.6148 0.3968,0.9828 2.0168,2.4569 3.6002,3.2757 2.5812,1.3348 3.2105,1.3171 6.0876,-0.1707 4.1481,-2.1451 9.47,-2.2334 13.459,-0.2234 3.1308,1.5774 3.2058,1.5571 6.4017,-1.7403 2.3264,-2.4002 3.6822,-3.1066 4.8321,-2.5175 0.8791,0.4504 2.1894,0.6077 2.9118,0.3496 1.5578,-0.5567 4.1097,2.508 4.1548,4.9896 0.033,1.8009 3.0318,2.5428 3.0318,0.75 0,-0.55 0.675,-1 1.5,-1 0.825,0 1.5,-0.4027 1.5,-0.895 0,-1.371 8.3481,-1.9885 9.5,-0.7027 1.096,1.2235 9.3546,3.5977 12.5144,3.5977 1.0921,0 1.9856,0.45 1.9856,1 0,0.55 1.1738,1 2.6084,1 2.2655,0 2.5279,-0.3206 1.9963,-2.4387 -0.9491,-3.7815 1.2394,-4.1005 4.5937,-0.6696 3.4072,3.485 4.9557,3.8324 6.8593,1.5388 0.7164,-0.8633 2.0576,-1.3721 2.9804,-1.1308 0.9228,0.2413 2.3665,0.053 3.2081,-0.4176 1.0027,-0.5612 1.9593,-0.3394 2.7747,0.6431 0.9433,1.1366 1.574,1.226 2.606,0.3695 0.7489,-0.6215 2.5704,-0.899 4.0478,-0.6166 1.4773,0.2825 3.5049,0 4.5057,-0.6228 1.2492,-0.7802 2.3682,-0.8216 3.5696,-0.1324 2.426,1.3919 7.25,0.6671 7.25,-1.0893 0,-1.9198 0.6578,-1.8134 4.1455,0.67 2.7847,1.9829 4.0977,2.0575 7.9731,0.4533 1.1218,-0.4644 1.7836,-0.039 2.1564,1.3865 0.7139,2.7301 4.725,2.8283 4.725,0.1156 0,-1.0675 0.359,-2.1628 0.7977,-2.434 1.4209,-0.8782 3.365,1.0353 3.0291,2.9815 -0.2436,1.4115 0.3096,1.9321 2.1732,2.045 1.375,0.083 2.95,0.2491 3.5,0.3684 0.55,0.1193 1.3938,0.1449 1.8752,0.057 0.4813,-0.088 1.6632,0.5531 2.6264,1.4248 1.6042,1.4518 1.8166,1.4343 2.5285,-0.2083 0.4275,-0.9863 0.6798,-2.5807 0.5607,-3.5432 -0.2649,-2.1413 0.8137,-2.2021 4.5449,-0.2562 3.9458,2.0579 9.0217,1.9372 10.2523,-0.2438 0.7909,-1.4017 1.2387,-1.5012 2.2497,-0.5 1.9017,1.8832 3.8623,1.5025 3.8623,-0.75 0,-2.5503 0.8156,-2.5219 3.6347,0.1265 2.6129,2.4547 5.3653,1.8929 5.3653,-1.0951 0,-1.139 0.6589,-2.0314 1.5,-2.0314 1.8018,0 1.9344,1.1656 0.3167,2.7833 -0.6509,0.6509 -0.8451,1.5216 -0.4316,1.9351 0.4134,0.4134 1.5492,-0.3056 2.524,-1.5978 l 1.7722,-2.3496 3.5838,3.6901 c 3.0118,3.1011 3.8991,3.5214 5.5594,2.6328 1.5221,-0.8146 2.1046,-0.721 2.5377,0.4076 0.7243,1.8876 3.6276,0.8127 3.6694,-1.3585 0.024,-1.2314 0.638,-0.954 2.452,1.107 1.3313,1.5125 2.8396,2.75 3.3518,2.75 0.5122,0 1.1785,0.9453 1.4807,2.1006 0.5887,2.2512 2.6839,1.7363 2.6839,-0.6596 0,-0.7926 0.8745,-1.441 1.9433,-1.441 1.0688,0 2.6078,-0.9488 3.4201,-2.1084 0.9731,-1.3893 1.9304,-1.8242 2.8067,-1.275 0.7314,0.4584 2.089,0.7087 3.0168,0.5563 0.9278,-0.1525 2.1811,0.6462 2.7852,1.7749 1.5906,2.9721 3.381,2.5952 2.5927,-0.5457 -0.3586,-1.4288 -0.2949,-2.4183 0.1416,-2.1989 0.4365,0.2194 2.9532,1.4193 5.5927,2.6664 l 4.7991,2.2674 4.0986,-4.0985 4.0986,-4.0986 1.958,2.1017 1.958,2.1016 1.451,-2.0716 c 1.6633,-2.3747 3.3376,-2.7191 3.3376,-0.6866 0,2.6032 4.2758,4.1566 11,3.9961 3.575,-0.085 7.266,-0.4708 8.2021,-0.8567 2.0642,-0.8509 3.7979,0.078 3.7979,2.0346 0,1.8792 0.922,1.8216 3.1525,-0.197 1.4212,-1.2862 2.1171,-1.3832 3.2397,-0.4515 0.9752,0.8093 1.6358,0.8532 2.0778,0.1381 0.3564,-0.5767 1.5215,-1.0486 2.589,-1.0486 1.2743,0 1.941,-0.6869 1.941,-2 0,-2.3086 1.5254,-2.6793 2.3357,-0.5676 0.3023,0.7878 2.0379,1.5753 3.857,1.75 2.764,0.2654 3.4659,0.8567 4.273,3.5994 0.6199,2.1065 1.5111,3.1767 2.4886,2.9885 2.2246,-0.4284 2.5479,-3.9299 0.5009,-5.4267 -1.4864,-1.0869 -1.5304,-1.3775 -0.2811,-1.8569 1.6906,-0.6487 6.8259,1.0561 6.8259,2.266 0,0.4413 -0.7005,1.8024 -1.5567,3.0248 -0.8562,1.2224 -1.32,2.2225 -1.0308,2.2225 1.6609,0 8.5242,-4.3782 9.1024,-5.8065 0.5849,-1.4452 0.8201,-1.3433 1.6041,0.6945 0.8592,2.2335 1.0357,2.282 2.7286,0.75 2.4642,-2.2302 4.0757,-2.0607 3.4421,0.362 -0.3576,1.3678 -0.031,2 1.0347,2 0.8566,0 1.8152,-0.4169 2.1301,-0.9264 0.6719,-1.0871 11.2208,-0.2255 13.8594,1.132 1.1299,0.5813 2.2612,0.5746 3,-0.018 0.762,-0.6109 2.9741,-0.4727 6.1861,0.3865 7.0314,1.8809 9.5908,1.8259 8.8173,-0.1896 -0.5059,-1.3186 -0.1786,-1.478 1.7814,-0.8678 1.3207,0.4112 2.5576,1.1569 2.7485,1.6571 0.191,0.5003 0.9728,0.3904 1.7373,-0.244 2.0577,-1.7077 4.4155,-0.3521 4.4155,2.5387 0,1.3923 0.45,2.5314 1,2.5314 1.4496,0 1.2264,-2.2318 -0.4647,-4.6461 -3.1031,-4.4304 2.5432,-4.6394 7.0601,-0.2614 2.7769,2.6914 3.4746,2.9404 5.3808,1.9202 1.7684,-0.9464 2.5263,-0.8679 3.9357,0.4076 2.0245,1.8321 4.2015,2.09 3.8381,0.4547 -0.4799,-2.1596 2.089,-1.9643 4.225,0.3213 1.1841,1.267 3.1367,2.3037 4.339,2.3037 1.693,0 2.1154,0.5074 1.8731,2.25 -0.4233,3.0443 1.6298,2.8618 2.8129,-0.25 0.6127,-1.6116 1.7253,-2.5 3.1309,-2.5 1.1992,0 3.6553,-1.125 5.458,-2.5 1.8027,-1.375 3.5327,-2.5 3.8444,-2.5 1.4364,0 0.325,2.4023 -1.9333,4.1787 -2.9569,2.3258 -3.2154,3.8213 -0.6605,3.8213 1.0117,0 2.3682,-1.1603 3.0143,-2.5785 1.3531,-2.9697 3.2055,-2.7855 4.6462,0.4619 0.776,1.7491 1.5844,2.1385 3.6094,1.7384 2.0378,-0.4026 2.8964,0.021 3.919,1.9313 1.5878,2.9667 3.5296,3.1413 4.9716,0.4469 0.6259,-1.1695 2.0938,-2 3.5352,-2 1.3556,0 2.4648,-0.3817 2.4648,-0.8483 0,-0.4666 1.8029,-1.5565 4.0065,-2.4221 3.0786,-1.2093 4.3042,-1.3024 5.2922,-0.4017 0.7072,0.6447 2.1668,1.6844 3.2435,2.3105 1.0768,0.6261 1.8953,1.8636 1.8189,2.75 -0.1751,2.0319 1.5087,2.1145 2.2773,0.1116 0.3281,-0.855 1.8195,-1.5 3.4686,-1.5 2.1718,0 2.893,-0.4719 2.893,-1.893 0,-1.9672 2.5061,-3.5303 4.0902,-2.5512 0.5004,0.3092 0.9098,1.8857 0.9098,3.5032 0,3.2181 1.4442,3.754 3.9661,1.4716 1.3231,-1.1973 2.3077,-1.2594 5.3182,-0.3354 3.1809,0.9762 3.9755,0.8797 5.7149,-0.6944 1.7688,-1.6009 2.3326,-1.6612 4.5307,-0.4848 1.9287,1.0322 2.7839,1.0702 3.6903,0.1638 1.8573,-1.8573 2.7798,-1.3948 2.7798,1.3935 0,1.9229 0.4423,2.4813 1.75,2.209 1.1451,-0.2384 1.6641,-1.1479 1.5015,-2.6314 -0.1429,-1.3039 0.1757,-2.0049 0.75,-1.65 0.5492,0.3394 0.9985,1.5017 0.9985,2.5829 0,2.3694 4.7446,4.5716 6.3628,2.9534 0.7163,-0.7163 0.6476,-1.0372 -0.2218,-1.0372 -0.6925,0 -0.9584,-0.4865 -0.5909,-1.081 0.3674,-0.5946 1.7164,-0.8179 2.9977,-0.4964 1.2813,0.3216 2.5997,0.1478 2.9297,-0.3862 0.8109,-1.3121 6.8223,-0.065 7.8254,1.6237 1.4323,2.4107 9.354,-0.5465 8.0993,-3.0234 -0.3167,-0.6252 0.2925,-0.071 1.3538,1.2306 1.4184,1.7402 2.5012,2.1859 4.0875,1.6824 1.4399,-0.457 3.1239,0 5.0616,1.3827 3.8102,2.7131 4.156,2.623 3.4514,-0.8999 -0.5074,-2.537 -0.1967,-3.1482 2.1425,-4.214 2.4611,-1.1213 2.9291,-1.0081 4.6584,1.1275 1.3308,1.6435 1.6024,2.6942 0.8825,3.4141 -1.3483,1.3483 -1.3407,3.6399 0.012,3.6399 0.5786,0 1.5227,-1.35 2.0978,-3 1.1044,-3.168 4.8502,-4.3022 4.8502,-1.4686 0,2.1987 3.0722,3.0903 4.3984,1.2766 1.5053,-2.0585 5.2673,-3.158 6.1146,-1.787 0.3747,0.6063 1.754,1.5102 3.065,2.0087 1.5774,0.5997 2.1838,1.4274 1.7926,2.4469 -0.481,1.2536 -0.1515,1.3762 1.7691,0.6585 1.7054,-0.6372 2.2669,-1.5106 2.0239,-3.1478 -0.2823,-1.901 0.018,-2.1731 1.8652,-1.69 1.2109,0.3166 2.9902,0.083 3.954,-0.5186 2.2741,-1.4202 5.4194,-0.2429 4.621,1.7297 -0.3321,0.8204 -0.8891,2.1983 -1.2378,3.0621 -0.5375,1.3314 -0.043,1.4635 3.25,0.8683 2.1362,-0.3861 4.784,-1.1872 5.884,-1.7802 1.1,-0.593 2.6516,-0.9436 3.4481,-0.7791 0.7965,0.1645 2.0332,-0.501 2.7483,-1.4789 1.221,-1.6699 1.4708,-1.6145 4.1066,0.9106 3.2346,3.099 4.197,3.343 4.197,1.0638 0,-1.2867 0.6506,-1.4949 3.125,-1 1.7188,0.3438 4.0548,0.625 5.1911,0.625 1.9327,0 1.9521,0.083 0.3011,1.2907 -1.5172,1.1094 -1.5917,1.6711 -0.5306,4 0.6789,1.4901 1.7884,2.7093 2.4655,2.7093 1.3281,0 2.8464,-4.5462 1.9842,-5.9412 -0.2886,-0.4671 0.1844,-1.1214 1.0512,-1.454 2.2227,-0.8529 2.5217,-0.7704 2.3379,0.6452 -0.4851,3.7352 -0.091,3.8956 8.0746,3.2889 6.7685,-0.503 8,-0.3593 8,0.9333 0,2.169 2.0902,1.8989 2.6772,-0.346 0.2695,-1.0305 1.8142,-2.8528 3.4327,-4.0493 l 2.9427,-2.1756 2.9737,2.1174 2.9737,2.1175 0,-2.1751 c 0,-1.5725 0.4382,-2.0069 1.5818,-1.5681 0.87,0.3339 1.77,0.607 2,0.607 0.23,0 0.4182,0.9 0.4182,2 0,2.6866 3.58051,2.6523 5.02571,-0.048 0.7589,-1.418 1.6928,-1.8586 3.0359,-1.4324 1.1823,0.3753 3.0736,-0.1916 4.8435,-1.4519 3.5886,-2.5553 3.7343,-2.5547 4.4074,0.019 0.7237,2.7673 4.0814,2.1362 4.5071,-0.8472 0.3702,-2.5949 1.4271,-2.8524 3.1562,-0.769 0.6713,0.809 2.1484,1.3715 3.2824,1.25 1.5605,-0.1671 2.2729,0.5693 2.9303,3.0292 0.9429,3.5276 3.8115,4.492 3.8115,1.2814 0,-1.2344 0.4997,-1.7769 1.3398,-1.4545 0.7369,0.2828 1.9066,-0.1688 2.5993,-1.0035 1.0259,-1.2361 0.9628,-1.8143 -0.3398,-3.1169 -3.4054,-3.4055 -1.4999,-4.5563 2.3021,-1.3904 2.1643,1.8023 2.2711,2.243 1.0818,4.4653 -0.7257,1.3561 -1.0076,2.7776 -0.6262,3.1589 0.8361,0.8362 7.8735,-1.5547 8.8,-2.9897 0.9652,-1.4951 6.8432,-1.4526 6.8431,0.049 -10e-5,0.6875 0.6749,1.25 1.4999,1.25 0.825,0 1.5,-0.675 1.5,-1.5 0,-1.9177 1.4042,-1.9228 2.99077,-0.011 0.6796,0.8189 1.6243,1.2488 2.0993,0.9552 0.475,-0.2935 2.7478,-0.026 5.0507,0.5937 3.5591,0.9584 4.3199,0.8901 5.0728,-0.4552 1.3039,-2.33 5.8546,-2.0377 6.4966,0.4173 0.6265,2.396 0.9769,2.4557 2.9326,0.5 0.825,-0.825 2.5028,-1.5 3.7285,-1.5 1.2257,0 2.8004,-0.5625 3.4994,-1.25 1.0244,-1.0077 1.1418,-0.728 0.6058,1.4432 -0.9098,3.6852 0.1048,5.0852 2.5698,3.5458 1.0745,-0.6711 1.9536,-1.7868 1.9536,-2.4795 0,-0.6927 0.6199,-1.2595 1.3776,-1.2595 0.7576,0 1.939,-0.6765 2.6252,-1.5033 1.5409,-1.8567 9.0907,-1.7523 13.77,0.1904 2.3337,0.9689 3.82,1.066 5.1795,0.3384 1.5374,-0.8228 2.2869,-0.5368 3.8711,1.4771 1.0804,1.3736 2.4622,2.4974 3.0705,2.4974 1.9123,0 1.2034,-3.1005 -1.1439,-5.0036 -1.2375,-1.0033 -1.9153,-2.1602 -1.5061,-2.5709 0.4091,-0.4106 1.5903,0.019 2.6248,0.9557 1.0345,0.9362 2.2748,1.6302 2.7561,1.5421 2.4018,-0.4395 3.3752,0.3036 3.3752,2.5767 0,2.8587 -0.035,2.8441 3.5565,1.4785 1.8883,-0.7179 3.0842,-0.6916 4.0242,0.089 1.6933,1.4053 7.3637,0.2414 8.0939,-1.6613 0.6422,-1.6735 5.3254,-1.9074 5.3254,-0.2659 0,0.6268 -0.7875,1.7375 -1.75,2.4682 -1.181,0.8965 -1.3204,1.3387 -0.4286,1.3602 0.7268,0.017 2.0223,-0.6691 2.879,-1.5257 0.8566,-0.8566 2.1785,-1.3192 2.9375,-1.028 0.759,0.2913 1.9343,-0.3578 2.6116,-1.4424 1.6803,-2.6905 3.6083,-2.4763 4.7505,0.5279 1.2444,3.273 3.3834,3.2858 2.7584,0.016 -0.4257,-2.227 -0.2153,-2.4183 2.0386,-1.8526 2.1987,0.5518 2.443,0.362 1.9518,-1.5165 -0.6422,-2.4557 -0.3948,-2.5635 2.4235,-1.0552 1.6116,0.8625 1.9144,1.7244 1.4397,4.0977 -0.9881,4.9405 0.1223,7.5835 2.9582,7.0414 2.8353,-0.542 3.1925,-2.7038 0.6798,-4.1144 -1.6613,-0.9326 -1.6598,-1.0172 0.031,-1.6685 0.9794,-0.3773 3.0995,-0.4223 4.7112,-0.1 1.6117,0.3224 3.2001,0.1496 3.5298,-0.3839 0.3632,-0.5877 1.2652,-0.6195 2.2888,-0.081 0.9291,0.4891 2.9268,0.8841 4.4393,0.8777 2.3777,-0.01 2.75,-0.412 2.75,-2.9698 0,-2.9879 2.3572,-3.6191 2.6347,-0.7056 0.074,0.7776 0.1865,1.9764 0.25,2.6639 0.063,0.6875 0.9602,1.25 1.9929,1.25 1.0326,0 2.4168,0.6498 3.0759,1.444 1.29,1.5543 4.8019,0.6172 8.1736,-2.1811 1.2085,-1.003 2.8809,-1.1375 6.5,-0.5229 4.2634,0.724 4.8338,1.1047 4.56,3.0438 -0.2158,1.529 0.2054,2.2162 1.3584,2.2162 1.2998,0 1.5265,-0.577 1.0198,-2.5957 -1.2767,-5.0871 3.6989,-7.477 5.5261,-2.6543 1.1169,2.9482 4.7263,7.25 6.0829,7.25 1.6157,0 0.7945,-2.1954 -0.9964,-2.6637 -1.3357,-0.3493 -1.8029,-1.3914 -1.75,-3.9035 0.061,-2.9126 0.4261,-3.4274 2.4305,-3.4299 2.0614,0 2.278,0.3434 1.7196,2.7471 -0.46,1.9803 -0.3641,2.3359 0.3426,1.2704 1.2318,-1.8575 7.0794,-2.287 7.0794,-0.52 0,0.6965 -0.8881,1.4986 -1.9735,1.7824 -1.8623,0.487 -1.8864,0.6909 -0.4268,3.6167 1.6269,3.2612 2.8187,3.8505 3.9817,1.9688 0.3847,-0.6224 -0.039,-1.5448 -0.941,-2.0497 -2.0216,-1.1313 -2.146,-2.8186 -0.2078,-2.8186 0.7879,0 1.7054,-0.8594 2.0387,-1.9097 0.7272,-2.2909 3.3303,-4.6221 4.1954,-3.757 0.3401,0.3401 0.049,1.3042 -0.6466,2.1425 -1.0741,1.2943 -0.8995,1.5242 1.1575,1.5242 1.3323,0 2.9624,0.54 3.6224,1.2 0.9333,0.9333 1.2,0.8222 1.2,-0.5 0,-1.8363 2.4899,-2.3343 3.5,-0.7 0.9795,1.5848 3.5,1.1615 3.5,-0.5879 0,-1.2752 0.7385,-1.4694 3.75,-0.9862 2.0625,0.3309 7.0398,0.6761 11.0607,0.767 5.9408,0.1344 7.4933,0.5066 8.2852,1.9862 1.2834,2.3981 2.9621,2.3149 3.6144,-0.1791 0.6139,-2.3477 2.2897,-2.6907 2.2897,-0.4686 0,0.8422 0.6466,1.7795 1.4369,2.0827 0.7902,0.3033 1.1921,1.1892 0.893,1.9687 -0.3639,0.9481 0.1574,1.4172 1.5749,1.4172 1.9005,0 2.055,-0.3993 1.4993,-3.8744 -0.4002,-2.5025 -0.2038,-4.1314 0.5547,-4.6001 1.519,-0.9388 2.3294,-0.077 2.5633,2.725 0.1353,1.6208 0.7174,2.1509 2.0828,1.8966 8.1115,-1.5104 15.6894,-0.366 12.3951,1.8719 -1.3023,0.8847 -1.2499,1.21 0.3973,2.468 2.4731,1.8887 3.6027,1.0904 3.6027,-2.546 0,-3.9511 2.1612,-3.8103 6.2522,0.4074 3.0809,3.1763 7.5736,5.7968 6.2407,3.6401 -0.336,-0.5437 0.1051,-0.9885 0.9803,-0.9885 0.8752,0 1.9225,-0.8953 2.3273,-1.9896 0.9189,-2.4841 7.7984,-6.0939 10.035,-5.2656 0.9155,0.339 2.3395,1.3538 3.1645,2.2552 0.825,0.9014 2.316,1.9419 3.3134,2.3123 0.9973,0.3705 1.5333,1.1268 1.191,1.6806 -0.3424,0.5539 0.079,1.0071 0.9366,1.0071 0.8574,0 1.559,-0.45 1.559,-1 0,-1.1011 6.2727,-1.394 7.3247,-0.342 0.3619,0.3619 0.2063,1.2022 -0.3457,1.8673 -0.6913,0.833 -0.5608,1.5769 0.4196,2.3906 1.6894,1.402 3.1031,-0.166 2.2214,-2.4638 -0.3221,-0.8393 0.028,-1.4521 0.8296,-1.4521 0.7628,0 2.1724,-0.3015 3.1327,-0.6699 1.1398,-0.4374 1.5096,-0.2879 1.0654,0.4309 -1.232,1.9935 1.6161,2.5987 3.0435,0.6466 0.9701,-1.3267 1.6046,-1.547 2.1083,-0.732 0.3963,0.6412 1.9503,1.4745 3.4533,1.8517 2.2692,0.5695 2.8929,0.2861 3.6766,-1.6707 0.5191,-1.2961 0.9724,-1.8598 1.0072,-1.2526 0.035,0.6072 1.1669,2.2947 2.5157,3.75 2.6799,2.8917 6.8927,3.7087 5.9093,1.146 -0.7662,-1.9967 1.513,-1.9234 3.7724,0.1213 2.3599,2.1356 5.2222,1.0763 4.3676,-1.6164 -1.0386,-3.2723 0.3722,-6.1644 2.8343,-5.81 1.5835,0.228 2.099,0.921 1.9215,2.5831 -0.1694,1.5859 0.5098,2.6144 2.25,3.4073 1.3709,0.6247 2.4926,1.5135 2.4926,1.9752 0,0.4617 0.4858,0.8395 1.0795,0.8395 0.6712,0 0.8382,-1.0984 0.4414,-2.9048 -0.3509,-1.5976 -0.2126,-3.1677 0.3072,-3.489 1.1696,-0.7228 2.834,1.2265 3.3245,3.8938 0.5874,3.1939 4.1151,3.0096 6.0806,-0.3176 1.6069,-2.7203 2.0269,-2.8684 6.9882,-2.4631 7.18,0.5866 7.804,0.8733 7.5228,3.4561 -0.3359,3.0853 2.9793,3.7732 3.4286,0.7114 0.18,-1.2266 0.8895,-2.4153 1.5767,-2.6416 2.0118,-0.6626 2.6399,2.667 0.8718,4.6208 -2.2757,2.5146 -2.0269,3.8111 0.3232,1.6843 1.0694,-0.9679 2.0819,-3.1751 2.25,-4.905 0.3401,-3.501 2.3055,-3.8593 2.3055,-0.4204 0,1.3394 1.0588,2.7828 2.7336,3.7266 2.578,1.4528 2.823,1.4126 4.3067,-0.7055 1.9492,-2.783 4.0575,-2.8921 4.7494,-0.246 0.6401,2.4477 6.1744,2.839 7.0719,0.5 0.8375,-2.1825 3.6384,-1.843 3.6384,0.441 0,3.0663 1.8771,3.4228 3.163,0.6006 0.7067,-1.5509 2.3946,-2.8935 4.2542,-3.3836 3.382,-0.8914 6.5828,-0.4253 6.5828,0.9586 0,1.6557 2.5152,0.8894 3.7922,-1.1554 1.4646,-2.3453 3.2078,-1.7488 3.2078,1.0978 0,1.8101 1.2924,2.2116 7,2.1746 0.275,0 1.625,-0.3095 3,-0.6839 1.7502,-0.4766 2.0814,-0.3914 1.1043,0.2839 -0.8481,0.5861 -1.1236,1.6737 -0.7022,2.7719 0.6239,1.6257 0.9149,1.5322 2.8957,-0.9298 2.853,-3.5461 7.2606,-4.4723 7.991,-1.6792 0.6767,2.5876 3.4822,3.6276 5.8301,2.1613 1.0197,-0.6368 2.6121,-1.1578 3.5388,-1.1578 0.9266,0 2.4984,-0.7363 3.4927,-1.6361 1.6743,-1.5152 1.8547,-1.5143 2.4406,0.013 0.7254,1.8902 -1.1743,4.6234 -3.2134,4.6234 -0.7577,0 -1.3776,0.7231 -1.3776,1.607 0,1.0559 0.5435,1.3984 1.5851,0.9987 0.8718,-0.3345 4.1343,-0.894 7.25,-1.2433 6.2627,-0.702 8.3241,-1.7839 7.4985,-3.9355 -0.7389,-1.9254 1.142,-1.8085 3.1461,0.1956 1.1307,1.1308 2.6443,1.4568 4.9934,1.0756 2.2425,-0.3639 3.5354,-0.1183 3.8624,0.7338 0.2703,0.7045 2.4319,1.7734 4.8035,2.3754 3.5507,0.9013 4.6084,0.8263 5.9907,-0.4247 1.3997,-1.2667 2.022,-1.3048 3.7439,-0.2295 1.7923,1.1194 2.3386,0.9963 4.1347,-0.9317 1.1383,-1.2218 2.4755,-2.2214 2.9716,-2.2214 1.5121,0 2.1154,1.7973 0.7763,2.3127 -0.6909,0.2659 -0.3562,0.4692 0.7438,0.4519 1.1,-0.017 2.7875,0.3016 3.75,0.7089 1.8586,0.7864 2.4971,-0.8937 0.75,-1.9735 -1.4678,-0.9072 -1.2183,-2.5 0.3916,-2.5 0.7654,0 1.6915,1.1948 2.058,2.6551 0.6336,2.5247 -0.033,3.5854 -2.9496,4.6917 -0.55,0.2087 -0.6538,0.7497 -0.2306,1.2023 0.4231,0.4526 3.0073,-0.3858 5.7426,-1.8631 2.7354,-1.4773 5.8501,-2.686 6.9217,-2.686 1.0715,0 2.2264,-0.45 2.5663,-1 0.9341,-1.5114 2.5,-1.1982 2.5,0.5 0,1 1,1.5 3,1.5 2,0 3,0.5 3,1.5 0,1.8582 4.7704,2.0174 8.5704,0.286 2.3554,-1.0732 2.8746,-0.9547 4.4748,1.0215 1.0785,1.3319 2.0685,1.8176 2.4492,1.2016 0.4069,-0.6584 1.2385,-0.6984 2.2897,-0.1101 1.229,0.6878 2.2495,0.2778 3.9942,-1.6047 l 2.3434,-2.5286 2.1891,1.994 c 1.2041,1.0967 3.8938,2.5399 5.9772,3.2072 3.173,1.0163 4.1707,0.9625 6.1449,-0.331 1.5769,-1.0332 3.55,-1.3507 5.962,-0.9592 2.9289,0.4752 3.6051,0.2732 3.6051,-1.0772 0,-2.4483 2.8781,-3.1485 4.398,-1.0699 0.9848,1.3468 2.079,1.625 4.4925,1.1423 1.8895,-0.3779 4.0163,-0.1353 5.2152,0.595 1.7338,1.056 2.2895,0.91 3.8697,-1.0169 1.1889,-1.4497 2.9441,-2.25 4.9349,-2.25 3.5357,0 4.0104,1.408 1.0897,3.2321 -2.3977,1.4974 -2.6737,3.2404 -0.3733,2.3576 0.8948,-0.3433 2.2114,-0.139 2.9259,0.4539 0.7144,0.593 1.8949,0.9798 2.6232,0.8596 0.7283,-0.1203 2.1768,0.1505 3.2188,0.6016 1.3231,0.5728 2.2623,0.3174 3.1135,-0.8467 0.6704,-0.9168 2.6991,-2.183 4.5083,-2.8137 2.7417,-0.9557 3.4807,-0.885 4.4384,0.4246 0.7028,0.9612 3.2645,1.7614 6.5971,2.0608 2.9964,0.2692 6.7781,1.0041 8.4035,1.6332 2.6097,1.0099 3.1493,0.8867 4.6122,-1.0526 1.3556,-1.7972 2.1817,-2.0497 4.5446,-1.3894 1.5883,0.4439 3.2378,0.7291 3.6656,0.6338 0.4278,-0.095 1.0385,0.5058 1.357,1.3359 0.7953,2.0726 2.7097,1.8911 4.8361,-0.4585 1.4594,-1.6127 2.1642,-1.7662 3.905,-0.8503 1.1682,0.6146 2.4479,1.6126 2.8436,2.2178 0.5154,0.7882 1.2916,0.7457 2.7364,-0.1497 2.8131,-1.7434 3.2818,-1.5742 2.4961,0.9013 -0.5729,1.8048 -0.3824,2.0344 1.1826,1.4259 3.4009,-1.3225 3.8671,-1.1011 3.6678,1.7411 l -0.1976,2.8182 2.1631,-2.8182 c 3.7355,-4.8668 6.4456,-5.7983 6.3115,-2.1695 -0.1042,2.8193 2.3986,3.6514 3.0852,1.0257 0.2929,-1.1199 1.2397,-2.3075 2.104,-2.6392 2.0008,-0.7678 3.4563,1.4888 2.0518,3.1812 -1.2333,1.4859 -1.421,1.3862 3.4432,1.829 3.0961,0.2819 4.0476,-0.091 5.365,-2.1014 1.1493,-1.7541 2.51,-2.4441 4.8197,-2.4441 1.7701,0 3.5166,0.2982 3.8811,0.6627 0.3645,0.3645 2.0266,0.8121 3.6935,0.9945 2.4652,0.2699 3.2078,-0.1337 3.9792,-2.1627 1.0731,-2.8224 2.2184,-3.1387 3.924,-1.0835 0.8005,0.9645 0.8393,1.616 0.1225,2.059 -1.5635,0.9663 -1.2664,3.5092 0.4886,4.1827 0.8455,0.3244 2.3724,-0.1659 3.393,-1.0896 1.7081,-1.5458 2.1556,-1.5541 5.6238,-0.105 4.1065,1.7158 7.9048,1.1798 7.0692,-0.9975 -0.3435,-0.8954 -0.01,-1.1616 0.9852,-0.7806 0.8286,0.3179 1.2753,1.1806 0.9927,1.917 -0.2825,0.7364 -0.013,1.6483 0.5987,2.0265 0.7722,0.4772 0.9194,-0.2775 0.4813,-2.468 -0.7562,-3.7808 1.3503,-4.3765 3.6856,-1.0423 0.8141,1.1622 2.7521,2.2149 4.3067,2.3393 1.5546,0.1244 3.6789,0.5965 4.7207,1.0491 1.4567,0.6329 2.3657,0.1754 3.937,-1.9816 1.8773,-2.577 2.1032,-2.651 2.7856,-0.9122 0.6602,1.6819 0.7505,1.6977 0.813,0.1422 0.088,-2.2016 3.6311,-2.337 4.4624,-0.1705 0.3334,0.8687 0.3327,2.6687 0,4 -0.4541,1.8092 -0.2013,2.4205 1.0009,2.4205 1.1133,0 1.6084,-0.9053 1.6084,-2.941 0,-1.6175 0.45,-3.2191 1,-3.559 0.55,-0.3399 1,-0.1415 1,0.441 0,0.5824 0.45,1.059 1,1.059 0.55,0 1,-0.7125 1,-1.5833 0,-2.6377 2.4769,-0.9576 2.8164,1.9104 0.3249,2.7444 1.9922,3.4643 3.811,1.6455 1.5515,-1.5515 12.3726,-1.5906 13.3259,-0.048 0.601,0.9724 1.2902,1.0155 2.8538,0.1787 2.6619,-1.4246 3.1929,-1.3899 3.1929,0.2082 0,0.7213 0.9175,2.2963 2.039,3.5 1.5358,1.6486 1.6798,2.1886 0.5833,2.1886 -0.8006,0 -1.6826,-0.5625 -1.96,-1.25 -0.4035,-1 -0.5202,-1 -0.5834,0 -0.049,0.7738 -1.571,1.25 -3.9956,1.25 -2.2423,0 -4.0965,-0.5344 -4.3373,-1.25 -0.3067,-0.9111 -0.8037,-0.9591 -1.8334,-0.1769 -1.7846,1.3556 -5.9126,1.6103 -5.9126,0.3648 0,-0.5159 -0.4766,-0.9379 -1.059,-0.9379 -0.5825,0 -0.7809,0.45 -0.441,1 0.3399,0.55 0.1415,1 -0.441,1 -0.5824,0 -1.0659,-0.5625 -1.0743,-1.25 -0.01,-0.8359 -0.3416,-0.7531 -1,0.25 -0.8753,1.3333 -1.0941,1.3333 -1.9694,0 -0.6584,-1.0031 -0.9897,-1.0859 -1,-0.25 -0.022,1.8093 -39.6229,1.8093 -40.353,0 -0.4035,-1 -0.5202,-1 -0.5834,0 -0.043,0.6875 -0.7539,1.25 -1.5789,1.25 -0.825,0 -1.5069,-0.5625 -1.5153,-1.25 -0.01,-0.8359 -0.3416,-0.7531 -1,0.25 -0.8753,1.3333 -1.0941,1.3333 -1.9694,0 -0.8753,-1.3333 -0.9881,-1.3333 -1.0153,0 -0.027,1.3333 -0.1383,1.3333 -1,0 -0.6462,-1 -0.9745,-1.0833 -0.9847,-0.25 -0.01,0.7846 -1.4735,1.25 -3.932,1.25 -2.1976,0 -4.138,-0.5486 -4.421,-1.25 -0.4035,-1 -0.5202,-1 -0.5834,0 -0.043,0.6875 -1.0055,1.25 -2.1379,1.25 -1.1325,0 -1.7809,-0.45 -1.441,-1 0.3399,-0.55 -0.1101,-1 -1,-1 -0.8899,0 -1.3414,0.4476 -1.0033,0.9947 0.4076,0.6594 -435.4149,0.9974 -1292.94088,1.0026 l -1293.55713,0.01 0,-78.3026 z m 2641.72913,76.6932 c -0.3323,-0.3323 -1.1948,-0.3678 -1.9167,-0.079 -0.7977,0.3192 -0.5608,0.5562 0.6042,0.6042 1.0541,0.043 1.6448,-0.193 1.3125,-0.5253 z m -240.7292,-17.3958 c 0,-0.55 -0.9,-1 -2,-1 -1.1,0 -2,0.45 -2,1 0,0.55 0.9,1 2,1 1.1,0 2,-0.45 2,-1 z m -304,-10 c 0,-0.55 -0.675,-1 -1.5,-1 -0.825,0 -1.5,0.45 -1.5,1 0,0.55 0.675,1 1.5,1 0.825,0 1.5,-0.45 1.5,-1 z m -7.6999,-5 c 0.3105,-1.925 0.3325,-2.9375 0.049,-2.25 -0.2836,0.6875 -1.1532,1.25 -1.9323,1.25 -1.4465,0 -2.0055,4.0779 -0.7334,5.35 1.0558,1.0557 1.9973,-0.5094 2.6168,-4.35 z m -292.30003,-2.5 c 0,-1.375 -0.45,-2.5 -1,-2.5 -1.1172,0 -1.3707,3.296 -0.3333,4.3333 1.1023,1.1024 1.3333,0.7848 1.3333,-1.8333 z m 226.99993,0.059 c 0,-0.2425 -0.45,-0.7191 -1,-1.059 -0.55,-0.3399 -1,-0.1415 -1,0.441 0,0.5824 0.45,1.059 1,1.059 0.55,0 1,-0.1984 1,-0.441 z m -106,-3.059 c 0,-2.9709 -1.5181,-3.269 -2.9568,-0.5807 -0.747,1.3958 -0.6884,2.0562 0.2148,2.4211 2.3262,0.9397 2.742,0.6606 2.742,-1.8404 z m -158.22913,-0.3125 c 0.2211,-0.6633 -0.5237,-1.1875 -1.6875,-1.1875 -2.0773,0 -2.6999,1.0501 -1.3958,2.3542 0.9265,0.9264 2.5962,0.2946 3.0833,-1.1667 z m -164.7708,-7.6875 c 0,-0.825 -0.4234,-1.5 -0.941,-1.5 -1.261,0 -2.1641,1.5616 -1.3651,2.3605 1.1261,1.1262 2.3061,0.6859 2.3061,-0.8605 z m -248.0153,-8.75 c -0.012,-1.7567 -0.2167,-1.9316 -0.934,-0.7977 -0.5053,0.7987 -0.6969,1.8112 -0.4257,2.25 0.8674,1.4034 1.3754,0.8607 1.3597,-1.4523 z m 101.0153,0.309 c 0,-1.2431 -0.8388,-1.6819 -4.8685,-2.5469 -2.5821,-0.5543 -3.2652,-0.4131 -2.9259,0.6048 0.6675,2.0023 7.7944,3.7781 7.7944,1.9421 z m -53.6507,-2.591 c -0.3098,-0.8074 -0.9651,-1.468 -1.4563,-1.468 -1.0261,0 -1.2065,2.3531 -0.2535,3.3061 1.0667,1.0668 2.3112,-0.271 1.7098,-1.8381 z m -85.3493,1.091 c 0,-0.2425 -0.45,-0.7191 -1,-1.059 -0.55,-0.3399 -1,-0.1415 -1,0.441 0,0.5824 0.45,1.059 1,1.059 0.55,0 1,-0.1984 1,-0.441 z m 28,-1.559 c 0,-0.55 -0.8734,-1 -1.941,-1 -1.0675,0 -2.2191,0.45 -2.559,1 -0.3505,0.5672 0.4896,1 1.941,1 1.4074,0 2.559,-0.45 2.559,-1 z m -138.5071,-2.9885 c 0.3504,-0.5669 -0.051,-0.7346 -0.941,-0.3931 -1.7324,0.6648 -2.0493,1.3816 -0.6109,1.3816 0.5175,0 1.2159,-0.4448 1.5519,-0.9885 z m -282.4929,-18.0115 c 0,-0.55 -0.45,-1 -1,-1 -0.55,0 -1,0.45 -1,1 0,0.55 0.45,1 1,1 0.55,0 1,-0.45 1,-1 z m -93.461056,-5.063 c 0.91544,-1.4812 -2.419,-4.9203 -4.1329,-4.2626 -1.94498,0.7464 -1.76081,3.0196 0.34396,4.2455 2.25871,1.3156 2.98441,1.3188 3.78894,0.017 z m -38.41138,-3.629 c 0.75484,-0.9305 0.8976,-1.4082 0.31724,-1.0613 -0.58036,0.3468 -2.81773,0.233 -4.97192,-0.2528 -4.57942,-1.0328 -5.76475,-0.4117 -3.03018,1.5879 2.61261,1.9103 6.0114,1.7893 7.68486,-0.2738 z m -184.127564,-11.808 c 1.03816,-1.2509 0.90224,-1.5 -0.81854,-1.5 -2.19011,0 -3.55396,1.2942 -2.48761,2.3605 1.0076,1.0076 1.96189,0.7592 3.30615,-0.8605 z m 18.2,-1.7 c -0.93333,-0.9333 -1.2,-0.6667 -1.2,1.2 0,1.8667 0.26667,2.1333 1.2,1.2 0.93333,-0.9333 0.93333,-1.4667 0,-2.4 z m -5.2,1.7818 c 0,-1.7677 -1.51942,-3.5818 -3,-3.5818 -2.09655,0 -3.43327,2.6488 -1.69382,3.3564 1.52612,0.6209 4.69382,0.773 4.69382,0.2254 z m -7.5,-1.5818 c -0.33992,-0.55 -1.04148,-1 -1.55902,-1 -0.51754,0 -0.94098,0.45 -0.94098,1 0,0.55 0.70156,1 1.55902,1 0.85746,0 1.2809,-0.45 0.94098,-1 z m 2.5,-6.0833 c 0,-2.4371 -2.33677,-2.0926 -2.82332,0.4162 -0.19138,0.9867 0.31876,1.6671 1.25,1.6671 0.92763,0 1.57332,-0.855 1.57332,-2.0833 z m -86,-1.4167 c 0,-0.825 -0.45,-1.5 -1,-1.5 -0.55,0 -1,0.675 -1,1.5 0,0.825 0.45,1.5 1,1.5 0.55,0 1,-0.675 1,-1.5 z m 92,-1.4326 c 0,-1.075 -3.89024,-2.5105 -4.6755,-1.7252 -0.28862,0.2886 -0.22815,1.0047 0.13438,1.5913 0.81061,1.3116 4.54112,1.4216 4.54112,0.1339 z m -54,-1.0674 c 0,-0.55 -0.45,-1 -1,-1 -0.55,0 -1,0.45 -1,1 0,0.55 0.45,1 1,1 0.55,0 1,-0.45 1,-1 z m 11.625,-1.0833 c 0.0688,-0.5042 0.18125,-1.1575 0.25,-1.4519 0.0688,-0.2943 0.92976,-0.1045 1.91335,0.4219 1.47414,0.789 1.82358,0.5316 1.9888,-1.4648 0.14781,-1.7859 -0.30031,-2.4219 -1.70656,-2.4219 -3.36543,0 -5.07059,1.1569 -5.07059,3.4403 0,3.3391 2.2021,4.5776 2.625,1.4764 z m 32.375,0.083 c 0,-0.55 -0.70156,-1 -1.55902,-1 -0.85746,0 -1.2809,0.45 -0.94098,1 0.33992,0.55 1.04148,1 1.55902,1 0.51754,0 0.94098,-0.45 0.94098,-1 z m 24.5,-6 c 0.33992,-0.55 0.16803,-1 -0.38197,-1 -0.55,0 -1.27811,0.45 -1.61803,1 -0.33992,0.55 -0.16803,1 0.38197,1 0.55,0 1.27811,-0.45 1.61803,-1 z m 20,-4 c 0.33992,-0.55 0.16803,-1 -0.38197,-1 -0.55,0 -1.27811,0.45 -1.61803,1 -0.33992,0.55 -0.16803,1 0.38197,1 0.55,0 1.27811,-0.45 1.61803,-1 z m -425.5,-24 c 0,-0.55 -0.47656,-1 -1.05902,-1 -0.58246,0 -0.7809,0.45 -0.44098,1 0.33992,0.55 0.81648,1 1.05902,1 0.24254,0 0.44098,-0.45 0.44098,-1 z m 3,-4 c 0,-0.55 -0.45,-1 -1,-1 -0.55,0 -1,0.45 -1,1 0,0.55 0.45,1 1,1 0.55,0 1,-0.45 1,-1 z m 9.72917,-0.6042 c -0.3323,-0.3323 -1.1948,-0.3678 -1.91667,-0.079 -0.79773,0.3192 -0.56078,0.5562 0.60417,0.6042 1.05416,0.043 1.64479,-0.193 1.3125,-0.5253 z m -97.2992,-3.2825 c 0.65323,-1.0569 -2.21301,-3.6636 -3.07767,-2.7989 -0.8332,0.8332 0.37204,3.6856 1.5573,3.6856 0.5348,0 1.21897,-0.399 1.52037,-0.8867 z m -17.42997,-1.6133 c 0,-0.825 -0.45,-1.5 -1,-1.5 -0.55,0 -1,0.675 -1,1.5 0,0.825 0.45,1.5 1,1.5 0.55,0 1,-0.675 1,-1.5 z m -6.5,-4.5 c -0.33992,-0.55 -1.04148,-1 -1.55902,-1 -0.51754,0 -0.94098,0.45 -0.94098,1 0,0.55 0.70156,1 1.55902,1 0.85746,0 1.2809,-0.45 0.94098,-1 z m 2565.99993,160 c 1.5617,-0.6711 1.6399,-0.8748 0.357,-0.9297 -1.575,-0.067 -3.3866,-2.874 -2.4559,-3.8047 0.7909,-0.7909 4.013,0.66 7.0989,3.1966 l 3,2.4659 -5,-0.034 c -3.6937,-0.025 -4.4775,-0.2589 -3,-0.8938 z m 10.5,0.115 c 0,-1.1629 5.0144,-4.4339 5.7182,-3.7301 0.2996,0.2996 1.4225,0.075 2.4952,-0.4991 1.5181,-0.8125 2.2288,-0.6633 3.206,0.6731 1.0191,1.3936 2.129,1.5859 5.8947,1.0212 2.5516,-0.3826 4.8878,-1.0977 5.1915,-1.5891 0.3037,-0.4915 2.6767,-0.7302 5.2733,-0.5306 2.5966,0.1996 5.2836,0.4027 5.9711,0.4513 2.5078,0.1772 1.1633,1.9482 -2,2.6345 -1.7875,0.3878 -3.5806,1.211 -3.9847,1.8294 -0.5212,0.7976 -0.7391,0.7611 -0.75,-0.1256 -0.01,-0.6875 -0.9153,-1.25 -2.0153,-1.25 -1.1,0 -2.0001,0.3375 -2.0002,0.75 -10e-5,0.4125 -2.2501,0.8852 -5,1.0505 -2.8298,0.17 -4.9998,-0.1285 -4.9998,-0.6879 0,-0.5436 -0.9,-0.9205 -2,-0.8376 -1.1,0.083 -2,0.5048 -2,0.9378 0,1.0511 -2.3064,0.5453 -3.25,-0.7128 -0.4761,-0.6348 -1.071,-0.5022 -1.6289,0.3632 -0.7421,1.1508 -0.9634,1.1508 -1.4211,0 -0.3849,-0.9679 -0.565,-1.0007 -0.6211,-0.1132 -0.088,1.4013 -2.0789,1.7507 -2.0789,0.365 z m 41.2332,-0.7767 c 0.7764,-0.7765 2.164,-1.1231 3.0835,-0.7703 2.341,0.8984 1.2305,2.182 -1.8877,2.182 -2.2454,0 -2.4115,-0.1961 -1.1958,-1.4117 z m 8.2668,0.6617 c 0.3399,-0.55 0.8165,-1 1.059,-1 0.2426,0 0.441,0.45 0.441,1 0,0.55 -0.4766,1 -1.059,1 -0.5825,0 -0.7809,-0.45 -0.441,-1 z m 6.5,0 c 0,-0.55 0.45,-1 1,-1 0.55,0 1,0.45 1,1 0,0.55 -0.45,1 -1,1 -0.55,0 -1,-0.45 -1,-1 z m 2.743,-0.2274 c -0.6549,-1.7066 1.4643,-4.232 2.599,-3.0973 0.3619,0.3619 0.658,0.133 0.658,-0.5086 0,-0.6417 0.45,-1.1667 1,-1.1667 0.55,0 1,0.675 1,1.5 0,0.825 0.45,1.5 1,1.5 0.55,0 0.9645,0.7875 0.9211,1.75 -0.048,1.0557 -0.2799,1.2516 -0.5855,0.4938 -0.2785,-0.691 -0.9875,-0.9589 -1.5755,-0.5955 -0.6319,0.3905 -0.7773,0.1886 -0.3556,-0.4938 0.3924,-0.635 0.237,-1.1545 -0.3455,-1.1545 -0.5824,0 -1.0659,0.7875 -1.0743,1.75 -0.012,1.3695 -0.2031,1.4536 -0.879,0.3868 -0.7016,-1.1074 -0.9457,-1.1169 -1.3011,-0.051 -0.3213,0.9639 -0.6034,0.8805 -1.0616,-0.3137 z m 9.4862,0.04 c 0.2177,-0.6531 0.9305,-1.3657 1.584,-1.5836 0.7307,-0.2435 0.9542,0.2136 0.5805,1.1875 -0.6975,1.8178 -2.7645,2.196 -2.1645,0.3961 z m 7.7708,0.021 c 0,-0.4583 0.675,-0.8333 1.5,-0.8333 0.825,0 1.5,0.375 1.5,0.8333 0,0.4584 -0.675,0.8334 -1.5,0.8334 -0.825,0 -1.5,-0.375 -1.5,-0.8334 z m 11.5,0.1667 c -0.3399,-0.55 -0.1415,-1 0.441,-1 0.5824,0 1.059,0.45 1.059,1 0,0.55 -0.1984,1 -0.441,1 -0.2425,0 -0.7191,-0.45 -1.059,-1 z m 22.5,0 c 0,-0.55 0.45,-1 1,-1 0.55,0 1,0.45 1,1 0,0.55 -0.45,1 -1,1 -0.55,0 -1,-0.45 -1,-1 z m 6,-0.1667 c 0,-0.4583 0.675,-0.8333 1.5,-0.8333 0.825,0 1.5,0.375 1.5,0.8333 0,0.4584 -0.675,0.8334 -1.5,0.8334 -0.825,0 -1.5,-0.375 -1.5,-0.8334 z m 7,0.7737 c 0,-0.2162 0.675,-0.652 1.5,-0.9686 0.825,-0.3166 1.5,-0.1398 1.5,0.393 0,0.5327 -0.675,0.9686 -1.5,0.9686 -0.825,0 -1.5,-0.1769 -1.5,-0.393 z m 63.5,-0.607 c -0.3399,-0.55 0.084,-1 0.941,-1 0.8574,0 1.559,0.45 1.559,1 0,0.55 -0.4234,1 -0.941,1 -0.5175,0 -1.2191,-0.45 -1.559,-1 z m -151,-1 c 0.3399,-0.55 1.379,-0.9931 2.309,-0.9847 1.4573,0.013 1.4837,0.1493 0.191,0.9847 -1.9584,1.2656 -3.2822,1.2656 -2.5,0 z m 55.5,-2 c 0,-0.55 0.4234,-1 0.941,-1 0.5175,0 1.2191,0.45 1.559,1 0.3399,0.55 -0.084,1 -0.941,1 -0.8574,0 -1.559,-0.45 -1.559,-1 z m -296.4573,-13.9309 c -0.6831,-1.1052 0.8944,-2.2987 1.8178,-1.3752 0.9508,0.9507 0.7736,2.3061 -0.3015,2.3061 -0.5175,0 -1.1999,-0.4189 -1.5163,-0.9309 z m 73.9573,-0.069 c 0.3399,-0.55 1.0415,-1 1.559,-1 0.5176,0 0.941,0.45 0.941,1 0,0.55 -0.7016,1 -1.559,1 -0.8575,0 -1.2809,-0.45 -0.941,-1 z m -197.5,-6.5 c -2.2197,-2.3628 -2.2402,-2.5 -0.3743,-2.5 2.2582,0 4.3743,1.7899 4.3743,3.7 0,1.9835 -1.4053,1.5619 -4,-1.2 z m 69.5,1.5 c -0.7292,-1.1799 0.2167,-3 1.559,-3 0.5176,0 0.941,0.9 0.941,2 0,2.1091 -1.4549,2.691 -2.5,1 z m -207.5,-11 c 0,-0.55 0.45,-1 1,-1 0.55,0 1,0.45 1,1 0,0.55 -0.45,1 -1,1 -0.55,0 -1,-0.45 -1,-1 z m -23,-2.8797 c 0,-0.4396 1.0804,-1.2915 2.4008,-1.8931 1.9872,-0.9055 2.4764,-0.8039 2.8399,0.5894 0.3275,1.2556 -0.2826,1.7367 -2.4008,1.8931 -1.5619,0.1154 -2.8399,-0.1499 -2.8399,-0.5894 z m -426.86793,-3.5497 c -2.0583,-1.1015 -2.1178,-1.3375 -0.6451,-2.5597 1.3847,-1.1492 1.9191,-1.0493 3.6509,0.6825 1.5891,1.5891 1.7289,2.1438 0.6451,2.5597 -0.761,0.292 -2.4039,-0.015 -3.6509,-0.6825 z m 33.368,-1.5706 c 0.3399,-0.55 0.8165,-1 1.059,-1 0.24256,0 0.44096,0.45 0.44096,1 0,0.55 -0.47656,1 -1.05896,1 -0.5825,0 -0.7809,-0.45 -0.441,-1 z m -228.8616,-5.5 c -0.3166,-0.825 -1.213,-1.5 -1.992,-1.5 -1.2406,0 -4.6464,-4.0056 -4.6464,-5.4648 0,-1.0966 4.6261,-0.4854 6.5558,0.8662 1.1004,0.7708 3.0183,1.5583 4.2621,1.75 2.9018,0.4473 3.0568,2.0706 0.3187,3.3357 -1.1751,0.5429 -2.1366,1.3304 -2.1366,1.75 0,1.3592 -1.7691,0.807 -2.3616,-0.7371 z m 88.9043,0.5691 c -0.3164,-0.512 -0.118,-1.2136 0.441,-1.559 1.1934,-0.7376 3.0163,0.1985 3.0163,1.5489 0,1.2168 -2.7066,1.2247 -3.4573,0.01 z m 43.4573,-0.9511 c 0,-0.55 0.45,-1.2781 1,-1.618 0.55,-0.3399 1,-0.168 1,0.382 0,0.55 -0.45,1.2781 -1,1.618 -0.55,0.3399 -1,0.168 -1,-0.382 z m -33.8125,-2.1805 c 0.2406,-0.7219 1.0281,-1.5094 1.75,-1.75 0.75,-0.25 1.125,0.125 0.875,0.875 -0.2406,0.7219 -1.0281,1.5094 -1.75,1.75 -0.75,0.25 -1.125,-0.125 -0.875,-0.875 z m 22.8125,-0.9375 c 0,-0.55 0.45,-1 1,-1 0.55,0 1,0.45 1,1 0,0.55 -0.45,1 -1,1 -0.55,0 -1,-0.45 -1,-1 z m -156.7708,-3.1875 c 0.618,-1.8542 2.7708,-2.1618 2.7708,-0.3958 0,0.8708 -0.7125,1.5833 -1.5833,1.5833 -0.8709,0 -1.4052,-0.5344 -1.1875,-1.1875 z m 75.7708,0.1875 c 0,-0.55 0.4766,-1 1.059,-1 0.5825,0 0.7809,0.45 0.441,1 -0.3399,0.55 -0.8165,1 -1.059,1 -0.2426,0 -0.441,-0.45 -0.441,-1 z m -263.5411,-6.0665 c -0.3626,-0.5866 -0.419,-1.3067 -0.1256,-1.6002 0.7163,-0.7163 2.6667,0.5459 2.6667,1.7257 0,1.278 -1.7264,1.1927 -2.5411,-0.1255 z m 25.1795,-2.4335 c -0.3507,-0.9137 0,-1.5 0.893,-1.5 0.8077,0 1.4686,0.675 1.4686,1.5 0,0.825 -0.4019,1.5 -0.893,1.5 -0.4912,0 -1.152,-0.675 -1.4686,-1.5 z m -277.1384,-12.5 c -0.3399,-0.55 0.1101,-1 1,-1 0.8899,0 1.3399,0.45 1,1 -0.3399,0.55 -0.7899,1 -1,1 -0.2101,0 -0.6601,-0.45 -1,-1 z m -238.499996,-13 c 0,-1.9217 1.95562,-2.7111 3.32466,-1.342 0.75703,0.757 -1.13576,3.342 -2.4471,3.342 -0.48266,0 -0.87756,-0.9 -0.87756,-2 z m -203.750004,-8.7057 c -2.74238,-0.5282 -2.99778,-2.2943 -0.33179,-2.2943 2.61266,0 5.08179,1.0237 5.08179,2.107 0,0.9141 -0.81029,0.9461 -4.75,0.1873 z m -21.1,-4.2443 c 0.22,-0.66 0.72625,-1.1662 1.125,-1.125 1.1957,0.1237 0.96414,1.4953 -0.325,1.925 -0.66,0.22 -1.02,-0.14 -0.8,-0.8 z m -7.9625,-2.1125 c 0.24063,-0.7219 1.02813,-1.5094 1.75,-1.75 0.75,-0.25 1.125,0.125 0.875,0.875 -0.24063,0.7219 -1.02813,1.5094 -1.75,1.75 -0.75,0.25 -1.125,-0.125 -0.875,-0.875 z m 27.8125,-14.9375 c 0,-0.55 0.70156,-1 1.55902,-1 0.85746,0 1.2809,0.45 0.94098,1 -0.33992,0.55 -1.04148,1 -1.55902,1 -0.51754,0 -0.94098,-0.45 -0.94098,-1 z m 19,-6.4686 c 0,-0.8946 0.58629,-1.2437 1.5,-0.893 0.825,0.3166 1.5,0.9774 1.5,1.4686 0,0.4911 -0.675,0.893 -1.5,0.893 -0.825,0 -1.5,-0.6609 -1.5,-1.4686 z m 5.54271,0.5377 c -0.68308,-1.1052 0.8944,-2.2987 1.81781,-1.3752 0.95079,0.9507 0.77359,2.3061 -0.3015,2.3061 -0.51754,0 -1.19988,-0.4189 -1.51631,-0.9309 z m -405.54271,-25.0691 c 0,-0.55 0.45,-1 1,-1 0.55,0 1,0.45 1,1 0,0.55 -0.45,1 -1,1 -0.55,0 -1,-0.45 -1,-1 z m -32,-4 c 0,-0.55 1.125,-1 2.5,-1 1.375,0 2.5,0.45 2.5,1 0,0.55 -1.125,1 -2.5,1 -1.375,0 -2.5,-0.45 -2.5,-1 z m -54,-6 c -1.2819,-0.8284 -1.24555,-0.9716 0.25,-0.9847 0.9625,-0.01 1.75,0.4347 1.75,0.9847 0,1.2196 -0.11279,1.2196 -2,0 z m 5,-1.059 c 0,-1.1325 0.45,-1.7809 1,-1.441 0.55,0.3399 1,1.2665 1,2.059 0,0.7926 -0.45,1.441 -1,1.441 -0.55,0 -1,-0.9266 -1,-2.059 z m -13.5,0.059 c -0.73784,-1.1938 1.22178,-1.1938 4,0 1.78583,0.7674 1.71184,0.867 -0.69098,0.9297 -1.48004,0.039 -2.9691,-0.3797 -3.30902,-0.9297 z m 41.59264,-0.8269 c -1.42677,-2.6659 -1.37876,-3.1731 0.30037,-3.1731 1.75796,0 2.98338,3.0236 1.73241,4.2746 -0.58685,0.5868 -1.35073,0.1729 -2.03278,-1.1015 z m -22.48563,0 c -0.32174,-0.5205 0.0959,-1.5116 0.92817,-2.2023 2.0363,-1.69 2.61533,-0.8971 0.97906,1.3406 -0.72723,0.9946 -1.58548,1.3823 -1.90723,0.8617 z m 8.99382,-0.4757 c -1.63212,-1.1934 -1.64611,-1.4149 -0.16696,-2.6425 1.83966,-1.5268 2.05647,-1.4047 3.00929,1.6951 0.78018,2.5381 -0.21378,2.8694 -2.84233,0.9474 z m -11.93198,-2.3619 c -0.36787,-0.3679 -0.66885,-1.4938 -0.66885,-2.5022 0,-1.2889 0.74242,-1.8333 2.5,-1.8333 1.375,0 2.5,0.3803 2.5,0.845 0,1.3376 -3.59049,4.2312 -4.33115,3.4905 z m -75.59496,-2.7465 c -0.80051,-0.9645 -0.83925,-1.616 -0.12245,-2.059 1.39636,-0.863 3.04856,0.2367 3.04856,2.029 0,1.8361 -1.41516,1.8506 -2.92611,0.03 z m 6.42611,-1.589 c -0.78218,-1.2656 0.54163,-1.2656 2.5,0 1.29269,0.8354 1.26629,0.9715 -0.19098,0.9847 -0.93004,0.01 -1.9691,-0.4347 -2.30902,-0.9847 z m -20.5,-6.559 c 0,-0.8575 0.45,-1.2809 1,-0.941 0.55,0.3399 1,1.0415 1,1.559 0,0.5176 -0.45,0.941 -1,0.941 -0.55,0 -1,-0.7016 -1,-1.559 z m -29,-1.941 c 0,-0.825 0.45,-1.5 1,-1.5 0.55,0 1,0.675 1,1.5 0,0.825 -0.45,1.5 -1,1.5 -0.55,0 -1,-0.675 -1,-1.5 z m -81.43571,-19.7931 c 0.37553,-0.9862 0.93469,-1.5412 1.24258,-1.2334 0.30789,0.3079 6.4e-4,1.1148 -0.68278,1.7932 -0.98762,0.9802 -1.10248,0.8654 -0.5598,-0.5598 z"
         id="path5823" />
    </g>
  </g>
</svg>
